<?xml version="1.0" encoding="UTF-8"?>
<svg version="1.1" xmlns="http://www.w3.org/2000/svg" width="1563" height="1563">
<path d="M0 0 C515.79 0 1031.58 0 1563 0 C1563 515.79 1563 1031.58 1563 1563 C1047.21 1563 531.42 1563 0 1563 C0 1047.21 0 531.42 0 0 Z " fill="#FEFEFE" transform="translate(0,0)"/>
<path d="M0 0 C49.58102105 -0.04583626 99.16203994 -0.08104903 148.74307803 -0.10213066 C154.60435349 -0.1046319 160.4656289 -0.10722056 166.3269043 -0.10986328 C167.49371677 -0.1103879 168.66052924 -0.11091252 169.86269967 -0.11145304 C188.72431002 -0.12014177 207.58590812 -0.13590327 226.44751122 -0.15430559 C245.81941444 -0.17304733 265.19131127 -0.18412574 284.56322318 -0.18817699 C296.50455291 -0.1909132 308.44584797 -0.19953694 320.38716701 -0.21583293 C328.58979156 -0.22645264 336.79239833 -0.2295894 344.99502923 -0.22700275 C349.71855108 -0.22572918 354.44201258 -0.22760012 359.16552353 -0.23841095 C403.94831739 -0.33579025 403.94831739 -0.33579025 425.75 4.3125 C426.8009082 4.53123779 427.85181641 4.74997559 428.93457031 4.9753418 C471.84811019 14.13403959 510.03110535 34.31570862 543 63 C543.72574219 63.61359375 544.45148437 64.2271875 545.19921875 64.859375 C554.80521112 73.04297905 563.19633734 82.10299489 571 92 C571.85907796 93.0468872 572.71981652 94.09241347 573.58203125 95.13671875 C599.41276778 126.73095295 616.46570479 165.35251848 623.54589844 205.43603516 C623.84044513 207.09911546 624.14518106 208.76043569 624.46191406 210.41943359 C629.47748666 237.09513019 628.63666422 266.34548741 624 293 C623.79914795 294.17054932 623.79914795 294.17054932 623.59423828 295.36474609 C617.56043954 328.9272945 603.99710593 363.27673951 584 391 C583.35546875 391.91652344 582.7109375 392.83304688 582.046875 393.77734375 C568.44655802 412.86597762 552.36484284 430.43020416 534 445 C533.21109375 445.65613281 532.4221875 446.31226563 531.609375 446.98828125 C482.43540606 487.61379532 421.09584754 500.71509677 358.82879162 500.47577858 C354.28493867 500.46375832 349.74116837 500.47802179 345.19732666 500.4901123 C333.71485465 500.51652453 322.23248919 500.51018753 310.75 500.5 C298.30059857 500.48898366 285.85136053 500.48403177 273.40198636 500.51729441 C268.03615693 500.53051139 262.67080617 500.52494022 257.3050065 500.50392914 C253.95533256 500.49484236 250.60583693 500.5025044 247.2561779 500.51434135 C245.72532712 500.51644208 244.19444763 500.51193139 242.66364479 500.4996357 C215.25317785 500.29216132 190.66642557 510.12270178 170 528 C169.18273437 528.61488281 168.36546875 529.22976563 167.5234375 529.86328125 C164.49760774 532.42540025 162.1009611 535.31576863 159.6875 538.4375 C158.97182861 539.35958252 158.97182861 539.35958252 158.24169922 540.30029297 C144.51812289 558.26561833 132.69531263 581.93101971 135.67526245 605.13519287 C136.19628626 608.72911415 136.75413022 612.31637596 137.31153202 615.90482235 C139.84114606 632.32801269 141.39943888 648.79246905 142.4375 665.375 C142.48901592 666.18211819 142.54053185 666.98923638 142.59360886 667.8208127 C145.20638698 710.30485621 140.07314391 744.51162402 111.54127008 777.44172454 C98.33772416 792.35994333 84.15787443 806.21162294 69.5 819.6875 C68.73069704 820.39636321 67.96139407 821.10522642 67.1687789 821.83557034 C9.38157137 875 9.38157137 875 4 875 C3.93133206 843.19485148 3.87835291 811.38972435 3.84680401 779.58451885 C3.84305259 775.81635555 3.83916955 772.04819239 3.83520508 768.2800293 C3.83402468 767.15492763 3.83402468 767.15492763 3.83282044 766.00709664 C3.81982175 753.91539195 3.796199 741.82373072 3.76854161 729.73205168 C3.74033228 717.29388718 3.72379122 704.8557452 3.71773452 692.41755003 C3.71364998 684.76323478 3.70082467 677.10904247 3.6762506 669.45476513 C3.6582839 663.5522516 3.65667296 657.64979867 3.66067696 651.74725723 C3.6598617 649.35020257 3.65403178 646.9531426 3.64238358 644.5561161 C3.35644592 582.59650772 22.75046324 521.42728914 62 473 C62.72574219 472.0821875 63.45148438 471.164375 64.19921875 470.21875 C109.19603633 413.99292408 175.62766923 378.74667277 246.91285646 370.58604288 C258.47490562 369.35601766 270.09079734 369.46586108 281.70417166 369.52422142 C285.2202289 369.53634738 288.73618466 369.52193126 292.25222778 369.5098877 C301.12652428 369.48359022 310.00068154 369.48977756 318.875 369.5 C328.48963929 369.5110563 338.10406446 369.51572596 347.71866906 369.48270559 C351.18551326 369.47172265 354.65194323 369.46853544 358.1187706 369.4858551 C396.93467685 369.65447664 432.37420104 362.59030597 461.15234375 334.87890625 C483.93106751 312.22368625 495.94022262 282.4761943 496.4375 250.625 C496.47298385 217.68889359 483.33333623 188.46895369 460.7421875 164.74609375 C442.67130421 146.64946846 413.56687834 131.34363587 387.42850661 130.96250427 C384.82090493 131.10460631 382.23506438 131.32858691 379.63668823 131.58958435 C377.5917022 131.7670738 375.54670437 131.94442734 373.50169659 132.12166595 C372.42226736 132.22058986 371.34283814 132.31951376 370.23069894 132.42143536 C364.24315019 132.96316647 358.2504075 133.43905781 352.25724792 133.91404724 C350.97777883 134.01553491 349.69830973 134.11702258 348.38006884 134.22158563 C321.25144411 136.33003953 294.06695904 137.51594218 266.875 138.4375 C265.7580697 138.47622829 265.7580697 138.47622829 264.61857516 138.51573896 C127.73943647 143.2456887 127.73943647 143.2456887 73.46777344 92.69151306 C64.49100433 84.11534435 56.2473467 74.93327711 48.1875 65.5 C47.52716357 64.73069704 46.86682714 63.96139407 46.18648052 63.1687789 C0 9.21166146 0 9.21166146 0 0 Z " fill="#C3204A" transform="translate(272,356)"/>
<path d="M0 0 C49.83 0 99.66 0 151 0 C155.49963459 8.99926918 155.49963459 8.99926918 156.96020508 12.87915039 C157.29249115 13.75528488 157.62477722 14.63141937 157.96713257 15.53410339 C158.31442413 16.46257584 158.6617157 17.39104828 159.01953125 18.34765625 C159.58204086 19.83529228 159.58204086 19.83529228 160.15591431 21.35298157 C160.95985277 23.48037647 161.76190211 25.60848607 162.56222534 27.73724365 C164.26532439 32.26684111 165.97790575 36.79283396 167.6900177 41.31903076 C168.5591127 43.61675179 169.42775389 45.91464451 170.29594421 48.21270752 C173.97459033 57.94713286 177.6944114 67.66520197 181.4375 77.375 C182.03738257 78.93236186 182.63723575 80.48973503 183.23706055 82.04711914 C184.48393523 85.28386106 185.73131208 88.52040893 186.97900391 91.75683594 C190.86463604 101.83649155 194.74548437 111.91798888 198.625 122 C199.04299866 123.08620636 199.46099731 124.17241272 199.8916626 125.29153442 C206.55939558 142.62140566 213.1940771 159.96374264 219.8125 177.3125 C225.71227288 192.7773585 231.61653531 208.24033369 237.5625 223.6875 C237.8556308 224.44906403 238.1487616 225.21062805 238.45077515 225.99526978 C240.29368791 230.78257956 242.13756391 235.56951804 243.98162842 240.35638428 C254.66869935 268.09921335 265.33634909 295.84920748 275.9375 323.625 C276.5983963 325.35620087 276.5983963 325.35620087 277.27264404 327.12237549 C281.25084877 337.54341212 285.22818511 347.96476476 289.19044495 358.39187622 C290.42808268 361.64820027 291.66752436 364.90383585 292.90725708 368.15936279 C293.72654502 370.31333502 294.54289527 372.46840483 295.35913086 374.62353516 C295.83821769 375.88189733 296.31745462 377.14020237 296.796875 378.3984375 C297.20260742 379.46755371 297.60833984 380.53666992 298.02636719 381.63818359 C298.78876585 383.91684621 298.78876585 383.91684621 300 385 C310.20395488 358.51416229 320.38559562 332.02017521 330.5 305.5 C338.19702494 285.31908565 345.9313446 265.15284629 353.69140625 244.99609375 C359.14233624 230.83634518 364.57759488 216.67069539 370 202.5 C375.83716278 187.24539363 381.69126262 171.9974177 387.55947876 156.75473022 C395.00680904 137.41024492 402.42434034 118.05466379 409.8125 98.6875 C417.88919428 77.51631305 425.99014834 56.35477999 434.14593506 35.21392822 C435.02412238 32.93746938 435.90195884 30.66087542 436.77978516 28.38427734 C438.20982818 24.67618839 439.64118936 20.96861097 441.07369995 17.26147461 C441.60175747 15.8947233 442.12953524 14.52786386 442.65701294 13.16088867 C443.37191296 11.30869903 444.08825918 9.45706778 444.8046875 7.60546875 C445.20671387 6.56543701 445.60874023 5.52540527 446.02294922 4.45385742 C447 2 447 2 448 0 C497.83 0 547.66 0 599 0 C597.03093577 5.9071927 595.01883273 11.61565079 592.62109375 17.3359375 C592.29726715 18.11557861 591.97344055 18.89521973 591.63980103 19.69848633 C590.5754585 22.25862333 589.50655022 24.81682565 588.4375 27.375 C587.67807374 29.19863458 586.91888253 31.02236706 586.15991211 32.84619141 C583.77810427 38.5661482 581.3895769 44.28328535 579 50 C578.24380849 51.80989307 577.48762347 53.61978885 576.73144531 55.4296875 C572.62575916 65.25429293 568.51261262 75.0757605 564.39590454 84.89575195 C561.77088581 91.15822097 559.14998454 97.42240083 556.53125 103.6875 C548.53834431 122.80656888 540.5098743 141.90997942 532.43728638 160.99554443 C525.81732586 176.65105132 519.26660995 192.33464387 512.74029541 208.02938843 C506.31906424 223.46875686 499.83975862 238.88257784 493.32275391 254.28173828 C487.16553202 268.83401197 481.06688866 283.4098497 475 298 C468.15989453 314.44964536 461.26600974 330.87538054 454.32275391 347.28173828 C448.16553202 361.83401197 442.06688866 376.4098497 436 391 C429.15989453 407.44964536 422.26600974 423.87538054 415.32275391 440.28173828 C408.74088172 455.83765086 402.23004034 471.4222686 395.74478149 487.01867676 C388.90583092 503.46253201 382.00745831 519.88046019 375.05664062 536.27734375 C367.6281531 553.82078551 360.32803208 571.412723 353 589 C318.02 589 283.04 589 247 589 C240.10988524 574.07141801 240.10988524 574.07141801 237.109375 566.8359375 C236.5967083 565.60837738 236.5967083 565.60837738 236.07368469 564.35601807 C234.96358258 561.6965932 233.85682354 559.03579081 232.75 556.375 C231.9565645 554.47303368 231.16285762 552.57118055 230.36889648 550.66943359 C228.72449111 546.72994775 227.08123651 542.78998518 225.43896484 538.84960938 C221.65475857 529.77141537 217.85931211 520.69792746 214.0625 511.625 C213.6932843 510.74240509 213.3240686 509.85981018 212.94366455 508.95046997 C206.80891055 494.287346 200.62915278 479.64353662 194.43728638 465.00445557 C187.81902561 449.35296842 181.26992478 433.67343013 174.74533081 417.98269653 C168.9992805 404.16662909 163.2154967 390.36726048 157.38638306 376.58602905 C156.20091374 373.781731 155.01747653 370.9765844 153.8347168 368.17114258 C150.4399518 360.12162297 147.03857675 352.07558476 143.58677673 344.05032349 C142.15519062 340.71642919 140.7346055 337.3779172 139.31607056 334.03845215 C138.65655877 332.49348789 137.9919701 330.95067916 137.3218689 329.41027832 C136.40583909 327.30361156 135.50775129 325.19011091 134.61328125 323.07421875 C134.10579346 321.89432373 133.59830566 320.71442871 133.07543945 319.4987793 C131.2089787 313.42653206 131.79254095 308.00115334 133.375 301.875 C148.11749377 234.87001645 130.65311678 161.42481382 94.515625 104.3203125 C89.44781444 96.52820377 83.85950698 89.20755897 78 82 C77.13664414 80.91151751 76.27335903 79.82297889 75.41015625 78.734375 C64.20867284 64.85432307 51.21422982 51.77876642 37 41 C36.00226562 40.20851563 35.00453125 39.41703125 33.9765625 38.6015625 C29.45715541 35.03506325 24.98618942 31.54638865 20.05078125 28.56640625 C7.68143889 21.05257328 4.62733503 13.8820051 0 0 Z " fill="#000000" transform="translate(783,354)"/>
<path d="M0 0 C0.38844064 6.98499504 -0.62526826 11.73032063 -3.5 18.0625 C-3.83386719 18.83271484 -4.16773438 19.60292969 -4.51171875 20.39648438 C-5.3266012 22.270714 -6.16124268 24.13633258 -7 26 C-6.13246094 25.94585938 -5.26492188 25.89171875 -4.37109375 25.8359375 C3.17636086 26.20325279 11.07170562 31.18358028 16.53125 36.30859375 C20.29105327 40.6383672 23.22806368 45.35716021 23.5625 51.1875 C22.92985587 55.4754213 21.74899517 57.68503524 19 61 C16.31767173 62.34116414 14.18167741 62.16904021 11.1875 62.1875 C9.63095703 62.20876953 9.63095703 62.20876953 8.04296875 62.23046875 C4.93494638 61.99507296 2.83461213 61.2351148 0 60 C-6.83276931 59.05754906 -10.47539417 61.08202037 -16.3203125 64.546875 C-18.75468052 65.86696961 -20.68599781 66.57705238 -23.375 67.125 C-27.05313844 67.71020376 -27.05313844 67.71020376 -29.375 70.125 C-33.28742777 72.91959127 -37.32470194 72.68148412 -42 72 C-43.485 71.01 -43.485 71.01 -45 70 C-44.27103516 71.47533203 -44.27103516 71.47533203 -43.52734375 72.98046875 C-41.75551533 77.13492088 -41.49873399 80.83572136 -41.5625 85.3125 C-41.57007324 86.05870605 -41.57764648 86.80491211 -41.58544922 87.57373047 C-41.83538121 95.98202628 -44.25164894 103.11643576 -50.0078125 109.39453125 C-54.17772569 112.75499071 -59.12830206 114.84793926 -64 117 C-62.5122357 121.24821232 -60.30075015 124.76409955 -57.75390625 128.4375 C-57.34212631 129.04005615 -56.93034637 129.6426123 -56.50608826 130.26342773 C-55.1960628 132.17875177 -53.87961421 134.08954548 -52.5625 136 C-51.25014918 137.91124204 -49.9391863 139.82341892 -48.62962341 141.73657227 C-47.8167785 142.9232483 -47.00214819 144.10870405 -46.18544006 145.29272461 C-44.00596065 148.46569565 -41.94280347 151.67677336 -40 155 C-45.44512111 156.41673322 -50.69449879 157.33141524 -56 155 C-61.7132118 149.65741107 -65.46613766 142.47295993 -69.359375 135.76611328 C-71.52598646 132.11318057 -73.94391719 128.68394432 -76.4375 125.25 C-80 120.23756906 -80 120.23756906 -80 118 C-87.59 118 -95.18 118 -103 118 C-103 130.21 -103 142.42 -103 155 C-107.29 155 -111.58 155 -116 155 C-116 121.34 -116 87.68 -116 53 C-105.44 53 -94.88 53 -84 53 C-83.67 45.74 -83.34 38.48 -83 31 C-82.01 31 -81.02 31 -80 31 C-79.85284308 38.3905476 -80.29223008 45.64424835 -81 53 C-80.01 53 -79.02 53 -78 53 C-78.04640625 51.89140625 -78.0928125 50.7828125 -78.140625 49.640625 C-78.17815102 48.17711032 -78.21455029 46.71356644 -78.25 45.25 C-78.28351562 44.52039063 -78.31703125 43.79078125 -78.3515625 43.0390625 C-78.41636054 39.47517014 -78.30788876 37.42467415 -76.1875 34.5 C-73.33360498 32.54304342 -71.38648598 32.69213764 -68 33 C-68 33.33 -68 33.66 -68 34 C-68.969375 34.28875 -69.93875 34.5775 -70.9375 34.875 C-74.10664203 35.64214682 -74.10664203 35.64214682 -75 38 C-75.23172827 40.54615009 -75.41894529 43.07396225 -75.5625 45.625 C-75.62727539 46.68460938 -75.62727539 46.68460938 -75.69335938 47.765625 C-75.79944751 49.51018537 -75.90022889 51.25506697 -76 53 C-70.40805888 51.65476888 -67.86448853 50.64694146 -64.80078125 45.88671875 C-63.58700281 43.02693832 -64.08330842 40.89110422 -65 38 C-63.02 38.66 -61.04 39.32 -59 40 C-60.41963409 45.67853635 -63.39363961 49.53174216 -67 54 C-64.69 53.67 -62.38 53.34 -60 53 C-60 53.99 -60 54.98 -60 56 C-57.73183699 57.84425989 -57.73183699 57.84425989 -55 59 C-54.01 58.67 -53.02 58.34 -52 58 C-52.495 56.9790625 -52.495 56.9790625 -53 55.9375 C-54.17307315 52.49159762 -54.14180493 49.61602578 -54 46 C-51.13275314 46.57344937 -50.1385485 46.8614515 -48 49 C-42.18356811 49.82057545 -36.50565144 48.86632252 -31 47 C-28.46469538 45.01286935 -27.21951949 43.45059263 -25.8125 40.5625 C-23.7915431 37.70528507 -22.92979261 37.47925481 -19.8125 36.1875 C-12.51525741 32.48531004 -10.06838043 24.13753036 -7 17 C-6.71229736 16.37432129 -6.42459473 15.74864258 -6.12817383 15.10400391 C-4.59564857 11.72487017 -3.63623908 8.83052226 -3.4375 5.125 C-3.30859375 2.8203125 -3.30859375 2.8203125 -3 1 C-1 0 -1 0 0 0 Z " fill="#050505" transform="translate(871,944)"/>
<path d="M0 0 C10.03540648 4.38924339 14.84133857 13.7905896 18.77734375 23.421875 C19.37546875 24.5975 19.97359375 25.773125 20.58984375 26.984375 C21.77734375 29.421875 21.77734375 29.421875 21.77734375 31.421875 C24.18605702 30.06697379 26.43380744 28.72732696 28.50390625 26.88671875 C32.573822 23.34438467 35.17354064 22.03766292 40.65234375 22.109375 C41.57789063 22.17511719 42.5034375 22.24085938 43.45703125 22.30859375 C45.80327465 22.61319994 45.80327465 22.61319994 47.77734375 21.421875 C54.27456346 20.91610341 60.26834093 20.52526325 65.77734375 24.421875 C69.45734491 27.69298714 71.59350264 29.78396889 71.9453125 34.83203125 C71.95175781 35.70730469 71.95820312 36.58257813 71.96484375 37.484375 C71.97902344 38.36222656 71.99320313 39.24007812 72.0078125 40.14453125 C71.77734375 42.421875 71.77734375 42.421875 69.77734375 44.421875 C68.99589465 46.02272675 68.26741282 47.64972112 67.5703125 49.2890625 C66.93706055 50.74119141 66.93706055 50.74119141 66.29101562 52.22265625 C65.41157585 54.26129868 64.53909425 56.30295779 63.67382812 58.34765625 C60.80646115 64.880568 58.58869848 68.83381053 51.77734375 71.671875 C48.15034963 73.78762157 46.96637537 75.93425095 45.05078125 79.58203125 C42.98550024 82.56591885 40.53192033 83.24639207 37.08984375 84.046875 C28.50662552 85.01856008 28.50662552 85.01856008 24.77734375 84.421875 C23.1328125 82.90625 23.1328125 82.90625 21.77734375 81.421875 C21.11734375 81.421875 20.45734375 81.421875 19.77734375 81.421875 C19.885625 82.34419922 19.885625 82.34419922 19.99609375 83.28515625 C20.08890625 84.09339844 20.18171875 84.90164063 20.27734375 85.734375 C20.37015625 86.53488281 20.46296875 87.33539062 20.55859375 88.16015625 C20.77734375 90.421875 20.77734375 90.421875 20.77734375 93.421875 C16.50024676 93.421875 15.21803999 92.71567249 11.77734375 90.421875 C12.27234375 88.936875 12.27234375 88.936875 12.77734375 87.421875 C11.99359375 87.7725 11.20984375 88.123125 10.40234375 88.484375 C9.53609375 88.79375 8.66984375 89.103125 7.77734375 89.421875 C6.78734375 88.926875 6.78734375 88.926875 5.77734375 88.421875 C6.81897383 85.38378726 7.86380325 83.31507209 9.90234375 80.796875 C12.08716589 78.53375522 12.08716589 78.53375522 11.77734375 75.421875 C9.83724853 73.71655177 9.83724853 73.71655177 7.77734375 72.421875 C8.76734375 73.906875 8.76734375 73.906875 9.77734375 75.421875 C9.77734375 79.93311871 7.31439251 82.68636053 4.640625 86.06640625 C2.01329744 87.97769066 -0.06036538 87.64743701 -3.22265625 87.421875 C-3.27676749 85.00490628 -3.31637903 82.58915713 -3.34765625 80.171875 C-3.36441406 79.48996094 -3.38117187 78.80804687 -3.3984375 78.10546875 C-3.43479107 74.3610515 -3.30209974 71.59834773 -1.22265625 68.421875 C-2.8508051 69.41451879 -2.8508051 69.41451879 -4.22265625 71.421875 C-4.59940143 74.21439083 -4.82457566 76.80966701 -4.91015625 79.609375 C-4.94431641 80.35896484 -4.97847656 81.10855469 -5.01367188 81.88085938 C-5.09599919 83.72734338 -5.16100906 85.57458494 -5.22265625 87.421875 C-6.21265625 87.421875 -7.20265625 87.421875 -8.22265625 87.421875 C-8.33724651 80.01170477 -8.13425911 72.77981233 -7.22265625 65.421875 C-8.30353516 65.30005859 -8.30353516 65.30005859 -9.40625 65.17578125 C-15.74410606 63.47924003 -21.53715759 57.23683511 -24.84765625 51.671875 C-27.19993474 46.26383286 -26.53895394 40.18552185 -26.22265625 34.421875 C-24.90265625 33.761875 -23.58265625 33.101875 -22.22265625 32.421875 C-23.13907114 28.06890428 -23.96046782 24.58900444 -26.41015625 20.859375 C-28.22265625 17.421875 -28.22265625 17.421875 -28.28515625 13.796875 C-27.02180903 9.78388971 -25.46957846 8.05033583 -22.22265625 5.421875 C-21.23265625 5.091875 -20.24265625 4.761875 -19.22265625 4.421875 C-17.86897029 3.10920982 -16.53466029 1.77620175 -15.22265625 0.421875 C-10.7819553 -1.79847547 -4.70592998 -1.22403803 0 0 Z " fill="#1C1C1C" transform="translate(798.22265625,909.578125)"/>
<path d="M0 0 C12 0 12 0 15.86572266 3.80102539 C17.00845841 5.53886374 18.10578783 7.30713067 19.1640625 9.09765625 C19.7670517 10.03870712 20.37004089 10.979758 20.99130249 11.94932556 C22.91014019 14.9634007 24.76763124 18.01024652 26.625 21.0625 C27.87886251 23.05782617 29.13664267 25.05069617 30.3984375 27.04101562 C32.83523171 30.89447002 35.25078228 34.75989393 37.64941406 38.63720703 C41.93370575 45.53660382 46.43521643 52.28400421 51 59 C54.39990786 55.71702487 56.83168565 52.28545994 59.25 48.25 C64.3197997 39.96561087 69.65642923 31.87066263 75.10546875 23.83105469 C78.15044557 19.33122363 81.1418348 14.85365156 83.828125 10.12890625 C84.24578125 9.42064697 84.6634375 8.7123877 85.09375 7.98266602 C85.83382589 6.71362964 86.54078136 5.42432142 87.203125 4.11303711 C88.203125 2.4375 88.203125 2.4375 91 0 C94.96 0 98.92 0 103 0 C103 33.66 103 67.32 103 102 C98.71 102 94.42 102 90 102 C89.67 77.25 89.34 52.5 89 27 C84.4625 33.80625 79.925 40.6125 75.25 47.625 C64.02441406 64.46337891 64.02441406 64.46337891 62.40148926 66.83331299 C60.82289817 69.17140841 60.82289817 69.17140841 59.28027344 72.61083984 C56.57661953 75.44359757 55.52422413 75.59353102 51.70483398 75.94750977 C48.35258936 75.74842538 46.57607807 75.45859031 43.93411255 73.35543823 C41.97864323 70.94983279 40.34686181 68.48050043 38.72265625 65.83984375 C38.10402206 64.90201553 37.48538788 63.96418732 36.8480072 62.99794006 C34.88273612 59.99991365 32.97308511 56.97059901 31.0625 53.9375 C29.75282011 51.92286941 28.4397018 49.91046964 27.12304688 47.90039062 C22.21364463 40.36558495 17.4631767 32.81055923 13 25 C12.67 50.41 12.34 75.82 12 102 C8.04 102 4.08 102 0 102 C0 68.34 0 34.68 0 0 Z " fill="#040404" transform="translate(905,997)"/>
<path d="M0 0 C3.09244792 0.03255208 6.18489583 0.06510417 9.27734375 0.09765625 C14.05317266 10.20192508 18.19617151 20.56010269 22.40234375 30.91015625 C23.99468235 34.81958653 25.58887423 38.72825915 27.18359375 42.63671875 C27.59429108 43.64363266 28.0049884 44.65054657 28.4281311 45.68797302 C31.49296986 53.19495848 34.58226541 60.69161567 37.68359375 68.18359375 C38.34220901 69.77493385 38.34220901 69.77493385 39.01412964 71.39842224 C40.73593337 75.55723772 42.45842046 79.71576427 44.18414307 83.87295532 C45.37547357 86.7428466 46.56482024 89.61355321 47.75390625 92.484375 C48.11238647 93.34578094 48.4708667 94.20718689 48.84020996 95.09469604 C51.27734375 100.98438537 51.27734375 100.98438537 51.27734375 102.09765625 C46.65734375 102.09765625 42.03734375 102.09765625 37.27734375 102.09765625 C35.77296529 98.64116764 34.27366953 95.18262878 32.77734375 91.72265625 C32.34808594 90.7378125 31.91882813 89.75296875 31.4765625 88.73828125 C30.86748047 87.32675781 30.86748047 87.32675781 30.24609375 85.88671875 C29.86904297 85.01740723 29.49199219 84.1480957 29.10351562 83.25244141 C28.27734375 81.09765625 28.27734375 81.09765625 28.27734375 79.09765625 C11.77734375 79.42765625 -4.72265625 79.75765625 -21.72265625 80.09765625 C-24.69265625 87.35765625 -27.66265625 94.61765625 -30.72265625 102.09765625 C-35.34265625 102.09765625 -39.96265625 102.09765625 -44.72265625 102.09765625 C-42.80021402 96.15529632 -40.69399869 90.37641281 -38.2734375 84.62109375 C-37.94355331 83.82911087 -37.61366913 83.03712799 -37.27378845 82.22114563 C-36.5651931 80.52075402 -35.85519971 78.82094444 -35.1439209 77.12167358 C-33.23801081 72.5681474 -31.3424219 68.01032302 -29.4453125 63.453125 C-29.05544159 62.51739151 -28.66557068 61.58165802 -28.2638855 60.61756897 C-23.78991382 49.87279131 -19.37774005 39.10280923 -14.96817017 28.33148193 C-13.15597442 23.90488487 -11.34267807 19.47874796 -9.52563477 15.05413818 C-8.99738762 13.7670477 -8.46986082 12.47966129 -7.94311523 11.19195557 C-7.24184127 9.47854013 -6.53705485 7.76656348 -5.83203125 6.0546875 C-5.25146973 4.64086792 -5.25146973 4.64086792 -4.65917969 3.19848633 C-3.2858745 0.11785777 -3.2858745 0.11785777 0 0 Z " fill="#050505" transform="translate(636.72265625,996.90234375)"/>
<path d="M0 0 C4.99377885 4.17583231 9.69798667 9.29646814 11.8125 15.515625 C12.03628962 18.89281387 11.95003204 22.12316802 11.8125 25.515625 C7.8525 25.515625 3.8925 25.515625 -0.1875 25.515625 C-0.6 24.13375 -1.0125 22.751875 -1.4375 21.328125 C-3.3205869 15.79167597 -5.49265816 12.25490183 -10.7109375 9.4140625 C-15.50844728 7.08837579 -19.85723324 6.86282613 -25.125 6.953125 C-26.00728271 6.96190674 -26.88956543 6.97068848 -27.79858398 6.97973633 C-34.19090029 7.18081225 -39.37197693 7.97599128 -44.1875 12.515625 C-47.26949084 15.97119048 -47.68002154 19.10643333 -47.4609375 23.59765625 C-46.93348343 27.29736981 -45.51561055 29.37923645 -42.69921875 31.7890625 C-37.6130414 35.38314928 -32.13834076 36.83039989 -26.1796875 38.42578125 C3.78746386 46.46482815 3.78746386 46.46482815 11.8125 58.515625 C15.34660658 64.87701684 15.88799042 70.3582185 14.0859375 77.32421875 C11.18341707 86.01998118 8.05476742 90.54505079 -0.0625 94.765625 C-12.10447332 100.61368515 -25.4064926 101.50913175 -38.3125 97.890625 C-43.73184909 95.94783948 -48.01610564 93.47701781 -52.1875 89.515625 C-52.74050781 88.99097656 -53.29351563 88.46632813 -53.86328125 87.92578125 C-59.74172283 81.72643219 -62.1875 74.98580087 -62.1875 66.515625 C-57.8975 66.515625 -53.6075 66.515625 -49.1875 66.515625 C-48.795625 67.876875 -48.40375 69.238125 -48 70.640625 C-46.01342677 76.49917661 -43.17809924 80.64648999 -37.66796875 83.65234375 C-32.70813546 86.04208675 -28.1145134 86.10905995 -22.6875 86.015625 C-21.78902344 86.03109375 -20.89054687 86.0465625 -19.96484375 86.0625 C-13.14502683 86.02279219 -7.74172838 84.61772538 -2.52929688 80.06835938 C-0.0780126 77.23172037 0.02115565 74.2369187 0.125 70.640625 C0.16238281 69.79757812 0.19976563 68.95453125 0.23828125 68.0859375 C-0.34337203 64.57467276 -1.70690071 63.03784508 -4.1875 60.515625 C-11.92869366 55.61404728 -20.65018164 53.45953554 -29.43530273 51.26733398 C-40.46329726 48.49612833 -51.65146564 44.13399894 -58.21484375 34.32421875 C-61.56652324 28.09197938 -62.02293912 22.50372515 -61.1875 15.515625 C-58.45628121 6.79767215 -53.1418104 1.50553882 -45.25 -2.734375 C-31.4403978 -9.03533418 -12.76256537 -8.82744105 0 0 Z " fill="#060606" transform="translate(1144.1875,1001.484375)"/>
<path d="M0 0 C19.14 0 38.28 0 58 0 C58 3.96 58 7.92 58 12 C43.15 12 28.3 12 13 12 C13 23.55 13 35.1 13 47 C26.86 47 40.72 47 55 47 C55 50.96 55 54.92 55 59 C41.14 59 27.28 59 13 59 C13 73.19 13 87.38 13 102 C8.71 102 4.42 102 0 102 C0 68.34 0 34.68 0 0 Z " fill="#050505" transform="translate(473,997)"/>
<path d="M0 0 C7.1465625 -0.185625 7.1465625 -0.185625 14.4375 -0.375 C15.9217749 -0.42962402 17.4060498 -0.48424805 18.93530273 -0.54052734 C27.29909332 -0.64534946 32.8112954 0.15487432 39 6 C44.79206072 12.00906725 46.3561203 15.42795305 46.28515625 23.8828125 C45.78009141 29.40393225 43.48356622 33.05601668 40.1875 37.375 C34.32003298 41.73368979 27.17465282 41.30786462 20.1875 41.25 C18.75760742 41.26160156 18.75760742 41.26160156 17.29882812 41.2734375 C16.38939453 41.27085938 15.47996094 41.26828125 14.54296875 41.265625 C13.71821045 41.26336914 12.89345215 41.26111328 12.04370117 41.25878906 C10 41 10 41 8 39 C8 39.66 8 40.32 8 41 C6.576875 40.7215625 6.576875 40.7215625 5.125 40.4375 C2.10131207 39.71313368 2.10131207 39.71313368 0 41 C0 27.47 0 13.94 0 0 Z " fill="#FBFBFB" transform="translate(768,1009)"/>
<path d="M0 0 C11.98790685 0.87184777 19.42727976 6.15543975 27.5625 14.6875 C29 17 29 17 28.75 19.3125 C28.37875 20.1478125 28.37875 20.1478125 28 21 C26.515 20.505 26.515 20.505 25 20 C22.3071504 19.82187376 19.70558632 19.91272302 17 20 C16.505 20.495 16.505 20.495 16 21 C17.11854586 24.72614153 17.11854586 24.72614153 20 27 C19.505 26.566875 19.01 26.13375 18.5 25.6875 C17 24 17 24 17 21 C22.26053037 20.68436818 25.44573816 21.33409063 30 24 C29.12269491 26.70502403 28.28331029 28.68400006 26.375 30.8125 C22.98477448 32.50761276 19.68415625 32.52826821 16 32 C15.21109375 31.67257812 14.4221875 31.34515625 13.609375 31.0078125 C8.86095336 29.17384127 3.99948997 29.34079832 -1 30 C-3.25669541 31.05758025 -5.07108992 32.28835799 -7.06640625 33.7734375 C-9.28104312 35.17827786 -11.0507937 35.56311307 -13.625 36 C-16.9445286 36.57978068 -18.68241434 37.29934663 -21.125 39.625 C-24 42 -24 42 -27.3125 42.5625 C-31.91437553 41.86051899 -36.08943625 40.5804942 -40 38 C-41.31640625 36.09375 -41.31640625 36.09375 -42 34 C-41.125 30.25 -41.125 30.25 -40 27 C-40.66 27 -41.32 27 -42 27 C-42.33 25.35 -42.66 23.7 -43 22 C-42.43667969 22.32355469 -41.87335937 22.64710938 -41.29296875 22.98046875 C-35.17600305 25.70027803 -27.95799347 24.19412078 -21.90625 21.9140625 C-18.33404177 20.20115937 -16.53191827 18.03724063 -14.75 14.5625 C-12.93900719 11.9106891 -11.84340199 11.17764533 -9.125 9.625 C-4.75594778 7.10191265 -2.66469688 4.24686066 0 0 Z " fill="#414141" transform="translate(862,972)"/>
<path d="M0 0 C8.68156448 2.9310236 13.74505183 9.1751108 18 17 C19.34911813 19.80709883 20.63584815 22.63222705 21.88671875 25.484375 C22.92168474 27.92705052 22.92168474 27.92705052 24.04638672 29.87695312 C25.75049655 33.67084434 25.41060443 37.6499199 25.4375 41.75 C25.47037109 42.61882813 25.50324219 43.48765625 25.53710938 44.3828125 C25.59060254 50.86034812 24.15996092 55.01499464 20 60 C16.29451861 63.76006295 13.38117184 64.62046402 8.1875 65.25 C7.02605469 65.39953125 5.86460937 65.5490625 4.66796875 65.703125 C3.78753906 65.80109375 2.90710938 65.8990625 2 66 C2 64.68 2 63.36 2 62 C2.66386719 61.75765625 3.32773437 61.5153125 4.01171875 61.265625 C11.06803754 58.58936312 11.06803754 58.58936312 17 54 C17.33 53.01 17.66 52.02 18 51 C17.2265625 52.11375 17.2265625 52.11375 16.4375 53.25 C13.46190006 56.60708711 11.03668879 58.05373933 7 60 C5.68 60 4.36 60 3 60 C2.5 57.375 2.5 57.375 3 54 C4.84310196 52.33179092 6.82038876 51.03625014 8.88671875 49.65625 C12.21321758 47.04916034 14.04963627 43.69443899 16 40 C15.48050781 40.69867187 14.96101562 41.39734375 14.42578125 42.1171875 C13.72839844 43.02726563 13.03101563 43.93734375 12.3125 44.875 C11.62800781 45.77992188 10.94351563 46.68484375 10.23828125 47.6171875 C8 50 8 50 3 52 C3 48.37 3 44.74 3 41 C6.96 39.02 10.92 37.04 15 35 C13.576875 35.66 12.15375 36.32 10.6875 37 C7.78752639 38.3449153 6.23655184 39 3 39 C2.625 35.75 2.625 35.75 3 32 C5.875 29.8125 5.875 29.8125 9 28 C10.38868516 25.89960669 10.38868516 25.89960669 11 24 C10.443125 24.78375 9.88625 25.5675 9.3125 26.375 C6.92331435 29.08704858 5.39926587 29.96133543 2 31 C-0.21455364 25.70967742 -0.21455364 25.70967742 0.8125 22.3125 C1.204375 21.549375 1.59625 20.78625 2 20 C2.33 19.01 2.66 18.02 3 17 C1.515 19.475 1.515 19.475 0 22 C-2.64141251 18.87833067 -3.96781258 15.95671845 -5 12 C-4.67 11.34 -4.34 10.68 -4 10 C-4.99 10.33 -5.98 10.66 -7 11 C-11.03361345 5.62184874 -11.03361345 5.62184874 -10.875 2.6875 C-8.80202768 -1.31037519 -3.90354838 -0.49394637 0 0 Z " fill="#F7F7F7" transform="translate(794,911)"/>
<path d="M0 0 C2.37620555 4.7524111 1.60766175 10.95435479 0.13916016 15.89794922 C-1.0349817 18.80366388 -2.32256016 21.61662433 -3.6875 24.4375 C-4.12255859 25.40365234 -4.55761719 26.36980469 -5.00585938 27.36523438 C-7.93206254 33.62080647 -10.43072877 37.51280365 -17 40.25 C-20.62699412 42.36574657 -21.81096838 44.51237595 -23.7265625 48.16015625 C-25.79184351 51.14404385 -28.24542342 51.82451707 -31.6875 52.625 C-42.8667655 53.89057723 -42.8667655 53.89057723 -45.76953125 51.609375 C-47 50 -47 50 -47 48 C-47.99 47.67 -48.98 47.34 -50 47 C-49.01 46.34 -48.02 45.68 -47 45 C-45.80767387 42.94996045 -45.80767387 42.94996045 -45 41 C-43.02 41 -41.04 41 -39 41 C-40.32 40.34 -41.64 39.68 -43 39 C-41.125 35.125 -41.125 35.125 -40 34 C-38.61903897 33.92549441 -37.23437565 33.91671016 -35.8515625 33.9375 C-35.01109375 33.94523438 -34.170625 33.95296875 -33.3046875 33.9609375 C-31.52604 33.98686531 -29.74739415 34.01290597 -27.96875 34.0390625 C-26.70417969 34.05066406 -26.70417969 34.05066406 -25.4140625 34.0625 C-24.25318115 34.07990234 -24.25318115 34.07990234 -23.06884766 34.09765625 C-20.80101767 34.08430865 -20.80101767 34.08430865 -18 33 C-24.6 33 -31.2 33 -38 33 C-36 28 -36 28 -35 27 C-31.50670355 26.76156265 -28.02034449 26.60471792 -24.52148438 26.48242188 C-20.0101319 26.27504834 -16.25461532 25.67606058 -12 24 C-13.051875 24.33 -14.10375 24.66 -15.1875 25 C-21.05298373 26.50071836 -26.99092943 26.16488303 -33 26 C-31.46875 23.046875 -31.46875 23.046875 -29 20 C-25.46875 19.265625 -25.46875 19.265625 -21.5 19.25 C-15.43946636 19.3028851 -15.43946636 19.3028851 -10 17 C-10.556875 17.144375 -11.11375 17.28875 -11.6875 17.4375 C-16.94136317 18.71546672 -21.59708529 19.19646963 -27 19 C-23.63551893 14.51402524 -20.4192697 10.80642323 -15 9 C-15 8.34 -15 7.68 -15 7 C-12.734375 5.2734375 -12.734375 5.2734375 -9.75 3.375 C-8.77546875 2.74335937 -7.8009375 2.11171875 -6.796875 1.4609375 C-4 0 -4 0 0 0 Z " fill="#F0F0F0" transform="translate(867,941)"/>
<path d="M0 0 C0.66 0 1.32 0 2 0 C4.38705712 5.87052127 6.771189 11.74222432 9.15332031 17.61474609 C9.96352402 19.61111135 10.77438946 21.60720819 11.5859375 23.60302734 C12.75435951 26.47683002 13.92037458 29.35159924 15.0859375 32.2265625 C15.44746918 33.11429352 15.80900085 34.00202454 16.18148804 34.91665649 C16.52168976 35.75707489 16.86189148 36.59749329 17.21240234 37.46337891 C17.50996429 38.19618073 17.80752625 38.92898254 18.11410522 39.68399048 C19.16238218 42.42451845 20.07213265 45.21639796 21 48 C7.8 48 -5.4 48 -19 48 C-15.625 37.875 -15.625 37.875 -14.19067383 34.39819336 C-13.87056839 33.61806381 -13.55046295 32.83793427 -13.22065735 32.03416443 C-12.88616074 31.2275386 -12.55166412 30.42091278 -12.20703125 29.58984375 C-11.68069344 28.31047691 -11.68069344 28.31047691 -11.14372253 27.00526428 C-10.03612316 24.31484205 -8.9243885 21.62615206 -7.8125 18.9375 C-7.055063 17.09972291 -6.29789899 15.26183329 -5.54101562 13.42382812 C-3.697161 8.9479127 -1.8495989 4.47354457 0 0 Z " fill="#F9F9F9" transform="translate(639,1016)"/>
<path d="M0 0 C2.72426311 2.35277269 3.8141763 4.62496331 5 8 C2.69 7.34 0.38 6.68 -2 6 C-0.76827299 7.42262982 -0.76827299 7.42262982 2.875 7.6875 C6.45674014 8.52837448 6.82316902 8.73475353 9 12 C10 15 10 15 10 17 C8.02 17 6.04 17 4 17 C5.7015625 17.433125 5.7015625 17.433125 7.4375 17.875 C8.613125 18.24625 9.78875 18.6175 11 19 C12.60725635 22.21451269 12.05748185 25.43612536 12 29 C10.35 28.34 8.7 27.68 7 27 C8.9254644 29.2236068 8.9254644 29.2236068 12 30 C12 32.64 12 35.28 12 38 C8.59244728 36.07119658 5.25852365 34.1723491 2 32 C10.58834081 37.4529148 10.58834081 37.4529148 11.59765625 41.24609375 C11.5625 43.4375 11.5625 43.4375 11 47 C7.55571735 45.55218207 5.63869038 43.72305391 3.25 40.875 C2.63640625 40.15054688 2.0228125 39.42609375 1.390625 38.6796875 C0.93171875 38.12539063 0.4728125 37.57109375 0 37 C2.42655726 41.46997391 5.34880489 45.67440245 10 48 C9.67 51.3 9.34 54.6 9 58 C-3.89473684 47.21052632 -3.89473684 47.21052632 -6 43 C-6.14911411 40.71167189 -6.22139705 38.41800293 -6.25 36.125 C-6.27578125 34.89007812 -6.3015625 33.65515625 -6.328125 32.3828125 C-5.97606361 28.75322725 -5.2691525 27.70621881 -3 25 C-3.07830576 20.77148907 -3.65555984 18.50100387 -6.0625 15 C-8.42858845 11.33637917 -8.56595542 9.28509104 -8 5 C-6.04031401 2.00890032 -3.30162984 1.1600321 0 0 Z " fill="#F3F3F3" transform="translate(781,916)"/>
<path d="M0 0 C7.33123028 2.66246057 7.33123028 2.66246057 9 6 C-0.41002278 10.22323462 -0.41002278 10.22323462 -5 12 C-4.67 9.69 -4.34 7.38 -4 5 C-5.2247165 7.13283395 -5.2247165 7.13283395 -5.25 10.375 C-6 14 -6 14 -8.4375 16.4375 C-11 18 -11 18 -13 18 C-13.125 10.375 -13.125 10.375 -12 7 C-13.27175734 9.54351469 -13.14347717 11.53692747 -13.25 14.375 C-13.65715665 19.64043258 -13.65715665 19.64043258 -16.5625 22.6875 C-17.7690625 23.3371875 -17.7690625 23.3371875 -19 24 C-19.66 23.67 -20.32 23.34 -21 23 C-21 19.04 -21 15.08 -21 11 C-21.79140541 17.42227643 -21.79140541 17.42227643 -21.75 23.875 C-21.8325 24.90625 -21.915 25.9375 -22 27 C-24.515625 28.6953125 -24.515625 28.6953125 -27 30 C-27 25 -27 20 -27 15 C-27.03738281 16.19238281 -27.07476563 17.38476562 -27.11328125 18.61328125 C-27.17894032 20.179719 -27.24538768 21.74612384 -27.3125 23.3125 C-27.33505859 24.09818359 -27.35761719 24.88386719 -27.38085938 25.69335938 C-27.41630859 26.45068359 -27.45175781 27.20800781 -27.48828125 27.98828125 C-27.51446533 28.68477783 -27.54064941 29.38127441 -27.56762695 30.09887695 C-28.12656341 32.55649307 -29.00338893 33.49334039 -31 35 C-31.99 35 -32.98 35 -34 35 C-34 29.72 -34 24.44 -34 19 C-34.33 19 -34.66 19 -35 19 C-35.51926978 13.80730223 -35.51926978 13.80730223 -35 11 C-32.375 8.8125 -32.375 8.8125 -29 7 C-27.7315625 5.6696875 -27.7315625 5.6696875 -26.4375 4.3125 C-22.56142773 0.91444201 -17.75336829 1.29805287 -12.828125 1.140625 C-8.3729986 0.91909938 -4.67559701 -0.61198914 0 0 Z " fill="#F3F3F3" transform="translate(856,933)"/>
<path d="M0 0 C11.98790685 0.87184777 19.42727976 6.15543975 27.5625 14.6875 C28.036875 15.450625 28.51125 16.21375 29 17 C28.67 18.32 28.34 19.64 28 21 C24.04 20.01 20.08 19.02 16 18 C16 17.34 16 16.68 16 16 C15.67 16.66 15.34 17.32 15 18 C13.02 18 11.04 18 9 18 C9.62759865 15.07120629 10.58622659 12.63904371 12 10 C9.0459281 14.26577569 9.0459281 14.26577569 7 19 C4.03 19.33 1.06 19.66 -2 20 C-0.8385658 15.35426321 0.357718 14.80175539 4 12 C4 11.34 4 10.68 4 10 C1.10288136 12.66221713 -0.82455534 14.56556559 -2.3125 18.25 C-4 21 -4 21 -5.9609375 21.6015625 C-8.1875 21.875 -8.1875 21.875 -12 22 C-11.61479436 19.46089803 -11.29902057 18.27248877 -9.37109375 16.515625 C-8.41396484 15.88914062 -8.41396484 15.88914062 -7.4375 15.25 C-6.47650391 14.60804688 -6.47650391 14.60804688 -5.49609375 13.953125 C-5.00238281 13.63859375 -4.50867188 13.3240625 -4 13 C-6.01019039 14.34012692 -8.05334154 15.63200492 -10.125 16.875 C-13.16232732 18.61787272 -13.16232732 18.61787272 -13.38647461 21.01269531 C-14 23 -14 23 -16.04125977 24.09667969 C-16.91580811 24.36899414 -17.79035645 24.64130859 -18.69140625 24.921875 C-20.10776367 25.37626953 -20.10776367 25.37626953 -21.55273438 25.83984375 C-22.54595703 26.14019531 -23.53917969 26.44054687 -24.5625 26.75 C-25.55958984 27.06582031 -26.55667969 27.38164063 -27.58398438 27.70703125 C-30.05172736 28.48631851 -32.52328739 29.24980688 -35 30 C-35.33 29.34 -35.66 28.68 -36 28 C-36.33 28.99 -36.66 29.98 -37 31 C-37.99 31 -38.98 31 -40 31 C-40 29.68 -40 28.36 -40 27 C-40.66 27 -41.32 27 -42 27 C-42.33 25.35 -42.66 23.7 -43 22 C-42.43667969 22.32355469 -41.87335937 22.64710938 -41.29296875 22.98046875 C-35.17600305 25.70027803 -27.95799347 24.19412078 -21.90625 21.9140625 C-18.33404177 20.20115937 -16.53191827 18.03724063 -14.75 14.5625 C-12.93900719 11.9106891 -11.84340199 11.17764533 -9.125 9.625 C-4.75594778 7.10191265 -2.66469688 4.24686066 0 0 Z " fill="#ECECEC" transform="translate(862,972)"/>
<path d="M0 0 C0.33 0.99 0.66 1.98 1 3 C0.484375 3.763125 -0.03125 4.52625 -0.5625 5.3125 C-2.36066925 7.97414344 -2.36066925 7.97414344 -1.3125 11.125 C-0.04262168 14.10838247 -0.04262168 14.10838247 2 17 C2.26554688 16.31292969 2.53109375 15.62585938 2.8046875 14.91796875 C3.15789063 14.01691406 3.51109375 13.11585938 3.875 12.1875 C4.22304688 11.29417969 4.57109375 10.40085937 4.9296875 9.48046875 C6 7 6 7 8 4 C7.68223482 8.52815388 7.39185468 11.74382393 4.875 15.5625 C2.64721295 19.64677626 2.91421955 21.5663965 4 26 C6.93375101 25.32942834 8.61941083 24.5040235 10.4453125 22.0859375 C11.6840771 20.08267818 12.87054327 18.06666551 14 16 C15 19 15 19 14.1796875 20.75390625 C11.49826189 24.47097229 9.63607655 26.80786603 5 28 C5 30.31 5 32.62 5 35 C5.68707031 34.71125 6.37414062 34.4225 7.08203125 34.125 C7.98308594 33.75375 8.88414062 33.3825 9.8125 33 C10.70582031 32.62875 11.59914063 32.2575 12.51953125 31.875 C15 31 15 31 18 31 C14.09897612 33.78644563 10.61513112 35.68139111 6 37 C5.67 40.63 5.34 44.26 5 48 C10.7858359 44.75428718 14.14729638 40.3345127 18 35 C18 40.02876148 14.282331 43.39147461 11 47 C10.05125 47.556875 9.1025 48.11375 8.125 48.6875 C5.63638241 49.88471749 5.63638241 49.88471749 5.1875 53.1875 C5.0946875 54.5796875 5.0946875 54.5796875 5 56 C12.18757985 53.56353225 16.70545284 50.49064149 22 45 C20.67779003 50.61939237 16.62017898 53.05907838 12 56 C8.92319393 57.5042163 7.4215158 58 4 58 C4.226875 58.763125 4.45375 59.52625 4.6875 60.3125 C4.790625 61.199375 4.89375 62.08625 5 63 C4.525625 63.3815625 4.05125 63.763125 3.5625 64.15625 C1.08076329 67.08469932 1.42493735 70.50919255 1.3125 74.1875 C1.27833984 74.93708984 1.24417969 75.68667969 1.20898438 76.45898438 C1.12665706 78.30546838 1.06164719 80.15270994 1 82 C0.01 82 -0.98 82 -2 82 C-2.11459026 74.58982977 -1.91160286 67.35793733 -1 60 C-1.72058594 59.91878906 -2.44117188 59.83757813 -3.18359375 59.75390625 C-9.1374386 58.1601586 -14.00053922 52.77278912 -17.53515625 47.87109375 C-19.93411685 43.47729853 -20.4133583 39.96029958 -20 35 C-19.67 35.66 -19.34 36.32 -19 37 C-18.34 37 -17.68 37 -17 37 C-16.93683594 37.56847656 -16.87367188 38.13695312 -16.80859375 38.72265625 C-15.74037373 45.45806461 -13.178664 48.71037703 -8 53 C-7.030625 53.804375 -6.06125 54.60875 -5.0625 55.4375 C-4.0415625 56.2109375 -4.0415625 56.2109375 -3 57 C-2.34 54.36 -1.68 51.72 -1 49 C-1.70125 48.835 -2.4025 48.67 -3.125 48.5 C-7.27977348 46.3322921 -9.62158605 42.98911201 -12 39 C-12.671875 36.7421875 -12.671875 36.7421875 -13 35 C-10.03413666 37.88448295 -7.39467628 41.00890096 -4.71875 44.16015625 C-2.93892929 46.20635628 -2.93892929 46.20635628 0 48 C0.05526759 44.84974765 0.06239603 42.90894152 -1 40 C-3.73031697 37.24392532 -6.74815898 35.10220025 -10 33 C-9.67 32.34 -9.34 31.68 -9 31 C-6.03 33.31 -3.06 35.62 0 38 C0.33 35.69 0.66 33.38 1 31 C0.236875 30.9175 -0.52625 30.835 -1.3125 30.75 C-4.52373261 29.85384206 -5.29374499 28.78388975 -7 26 C-4.33333333 27.33333333 -1.66666667 28.66666667 1 30 C0.505 25.05 0.505 25.05 0 20 C-1.134375 19.87625 -2.26875 19.7525 -3.4375 19.625 C-4.613125 19.41875 -5.78875 19.2125 -7 19 C-7.33 18.34 -7.66 17.68 -8 17 C-5.69 17.33 -3.38 17.66 -1 18 C-1.495 17.05125 -1.99 16.1025 -2.5 15.125 C-4 12 -4 12 -4 10 C-4.9075 10.04125 -5.815 10.0825 -6.75 10.125 C-9.8782046 10.00468444 -11.38614006 9.6085292 -14 8 C-13.67 7.34 -13.34 6.68 -13 6 C-9.535 7.485 -9.535 7.485 -6 9 C-5.67 8.01 -5.34 7.02 -5 6 C-4.34 6 -3.68 6 -3 6 C-2.01 4.02 -1.02 2.04 0 0 Z " fill="#2D2D2D" transform="translate(792,915)"/>
<path d="M0 0 C0.38844064 6.98499504 -0.62526826 11.73032063 -3.5 18.0625 C-3.83386719 18.83271484 -4.16773438 19.60292969 -4.51171875 20.39648438 C-5.3266012 22.270714 -6.16124268 24.13633258 -7 26 C-6.13246094 25.94585938 -5.26492188 25.89171875 -4.37109375 25.8359375 C3.17636086 26.20325279 11.07170562 31.18358028 16.53125 36.30859375 C20.29105327 40.6383672 23.22806368 45.35716021 23.5625 51.1875 C22.92985587 55.4754213 21.74899517 57.68503524 19 61 C16.31767173 62.34116414 14.18167741 62.16904021 11.1875 62.1875 C9.63095703 62.20876953 9.63095703 62.20876953 8.04296875 62.23046875 C4.93494638 61.99507296 2.83461213 61.2351148 0 60 C-6.90672763 59.04734791 -10.46987744 61.16510138 -16.3671875 64.6640625 C-19.90547157 66.45945294 -22.12408436 66.51678875 -26 66 C-25.505 64.515 -25.505 64.515 -25 63 C-24.01 62.938125 -23.02 62.87625 -22 62.8125 C-18.75043272 62.38441329 -16.92841652 61.37887201 -14.3125 59.4375 C-9.24402234 56.01231783 -3.9158493 56.22481975 2 57 C3.67650219 57.64153148 5.34439229 58.30632476 7 59 C9.75969218 59.49653552 12.24600252 59.56079384 15 59 C18.04475302 56.79086457 18.04475302 56.79086457 20 54 C20 53.34 20 52.68 20 52 C16.03302114 50.19682779 12.3177458 49.50797009 8 49 C9.61268692 51.71224618 11.24901874 54.37352812 13 57 C10.53199953 55.84826645 8.95216435 54.95216435 7 53 C7 51.68 7 50.36 7 49 C6.01 48.505 6.01 48.505 5 48 C7.67643957 47.10785348 9.25384378 46.86459789 12 46.875 C12.680625 46.87242187 13.36125 46.86984375 14.0625 46.8671875 C16 47 16 47 19 48 C17.93163675 41.78406836 12.85410471 37.49134509 8.125 33.6875 C3.34353716 31.10551007 -3.49688645 27.58491366 -9 29 C-11.19867777 31.79787307 -11.19867777 31.79787307 -13 35 C-14.89346707 37.32380049 -16.13553258 38.06055711 -18.9375 39.3125 C-22.61925259 41.34122081 -23.77640924 43.48529203 -26 47 C-31.13164309 51.99295003 -36.44710431 53.10525312 -43.4375 53.125 C-44.95857296 53.09326375 -46.47959282 53.05506505 -48 53 C-46 50 -46 50 -43.13671875 49.375 C-41.99847656 49.25125 -40.86023438 49.1275 -39.6875 49 C-35.03097301 48.49027755 -31.78513895 47.84728812 -28 45 C-27.08911 43.24328358 -26.17922131 41.48601121 -25.28125 39.72265625 C-23.66878179 37.55467308 -22.23431227 37.07919629 -19.75 36.0625 C-12.46100768 32.49017208 -10.0371507 24.06488515 -7 17 C-6.71229736 16.37432129 -6.42459473 15.74864258 -6.12817383 15.10400391 C-4.59564857 11.72487017 -3.63623908 8.83052226 -3.4375 5.125 C-3.30859375 2.8203125 -3.30859375 2.8203125 -3 1 C-1 0 -1 0 0 0 Z " fill="#171717" transform="translate(871,944)"/>
<path d="M0 0 C0 3.11227195 -0.45627049 5.94152152 -1 9 C-0.33613281 8.62746094 0.32773437 8.25492188 1.01171875 7.87109375 C1.89472656 7.39800781 2.77773438 6.92492187 3.6875 6.4375 C4.55761719 5.96183594 5.42773438 5.48617187 6.32421875 4.99609375 C9.38328753 3.85731632 10.91863039 4.07281311 14 5 C13.43539062 5.26554688 12.87078125 5.53109375 12.2890625 5.8046875 C9.01013385 7.51689257 6.05829522 9.65055249 3.0234375 11.7578125 C1 13 1 13 -1 13 C-1 13.66 -1 14.32 -1 15 C-0.01 15.33 0.98 15.66 2 16 C0.989375 16.20625 -0.02125 16.4125 -1.0625 16.625 C-5.64907657 17.89800901 -8.6373197 20.74974974 -12 24 C-5.50321562 24.29530838 0.6221448 23.17293889 7 22 C1.72219124 26.18584833 -3.06014737 26.24907353 -9.55078125 26.34179688 C-12.9243983 26.48485953 -14.57327624 26.55718943 -16.96875 29.04296875 C-17.3090625 29.68878906 -17.649375 30.33460938 -18 31 C-10.59768563 31.34880015 -4.33742776 30.89122063 2.72265625 28.55859375 C5 28 5 28 8 29 C0.15273617 32.2507933 -6.87163997 33.51928776 -15.29858398 33.40795898 C-17.66816654 33.38609369 -17.66816654 33.38609369 -21 34 C-21.99 35.65 -22.98 37.3 -24 39 C-11.625 38.505 -11.625 38.505 1 38 C-4.55651968 41.70434645 -10.35193739 41.12513036 -16.8125 41.0625 C-18.13797852 41.05573242 -18.13797852 41.05573242 -19.49023438 41.04882812 C-21.66018559 41.03709866 -23.83010172 41.01916495 -26 41 C-26.66 42.32 -27.32 43.64 -28 45 C-24.68455701 46.10514766 -21.79589889 46.32107631 -18.3125 46.5625 C-17.13300781 46.64628906 -15.95351563 46.73007812 -14.73828125 46.81640625 C-13.38283203 46.90728516 -13.38283203 46.90728516 -12 47 C-12 47.33 -12 47.66 -12 48 C-18.27 48 -24.54 48 -31 48 C-31.33 49.32 -31.66 50.64 -32 52 C-33.485 52.495 -33.485 52.495 -35 53 C-34.34 53.66 -33.68 54.32 -33 55 C-33.99 55.495 -33.99 55.495 -35 56 C-34.9278125 56.61488281 -34.855625 57.22976563 -34.78125 57.86328125 C-34.6884375 58.67152344 -34.595625 59.47976563 -34.5 60.3125 C-34.4071875 61.11300781 -34.314375 61.91351562 -34.21875 62.73828125 C-34 65 -34 65 -34 68 C-38.27931853 68 -39.72821183 67.63560713 -43 65 C-43.58523134 61.61151056 -43.13425269 60.21691754 -41.3125 57.2734375 C-40.549375 56.31695313 -39.78625 55.36046875 -39 54.375 C-38.16175397 53.30808164 -37.32453347 52.24035683 -36.48828125 51.171875 C-35.855271 50.37233398 -35.855271 50.37233398 -35.20947266 49.55664062 C-33.45697732 47.30110767 -31.8294514 44.9617561 -30.1875 42.625 C-26.42292317 37.38964721 -22.26006667 32.55743944 -17.94799805 27.77001953 C-15.37114021 24.85617834 -13.82627922 22.77116003 -13 19 C-12.67 18.67 -12.34 18.34 -12 18 C-11.84168746 16.25269861 -11.72335745 14.50169941 -11.625 12.75 C-11.28213765 8.42768613 -10.76707562 5.48892144 -8 2 C-7.505 2.99 -7.505 2.99 -7 4 C-7.433125 4.804375 -7.433125 4.804375 -7.875 5.625 C-9.48935582 9.03308451 -9.62538129 12.2538129 -10 16 C-9.21625 15.34 -8.4325 14.68 -7.625 14 C-5 12 -5 12 -3 12 C-3.061875 10.948125 -3.12375 9.89625 -3.1875 8.8125 C-2.9922214 4.84183507 -2.29674932 3.15803031 0 0 Z " fill="#373737" transform="translate(853,935)"/>
<path d="M0 0 C0.66 0.33 1.32 0.66 2 1 C2.14700056 4.16616599 2.23462106 7.33143982 2.3125 10.5 C2.35439453 11.386875 2.39628906 12.27375 2.43945312 13.1875 C2.56056901 19.77620426 1.26124761 23.93616569 -3 29 C-6.70548139 32.76006295 -9.61882816 33.62046402 -14.8125 34.25 C-15.97394531 34.39953125 -17.13539063 34.5490625 -18.33203125 34.703125 C-19.21246094 34.80109375 -20.09289062 34.8990625 -21 35 C-21 33.68 -21 32.36 -21 31 C-20.33613281 30.75765625 -19.67226563 30.5153125 -18.98828125 30.265625 C-11.93196246 27.58936312 -11.93196246 27.58936312 -6 23 C-5.67 22.01 -5.34 21.02 -5 20 C-5.7734375 21.11375 -5.7734375 21.11375 -6.5625 22.25 C-9.53809994 25.60708711 -11.96331121 27.05373933 -16 29 C-17.32 29 -18.64 29 -20 29 C-20.5 26.375 -20.5 26.375 -20 23 C-18.5703125 21.7578125 -18.5703125 21.7578125 -16.625 20.5 C-9.23532558 15.577949 -4.83886105 7.25829157 0 0 Z " fill="#F9F9F9" transform="translate(817,942)"/>
<path d="M0 0 C1 3 1 3 0.1796875 4.75390625 C-2.50173811 8.47097229 -4.36392345 10.80786603 -9 12 C-9 14.31 -9 16.62 -9 19 C-8.31292969 18.71125 -7.62585938 18.4225 -6.91796875 18.125 C-6.01691406 17.75375 -5.11585938 17.3825 -4.1875 17 C-3.29417969 16.62875 -2.40085937 16.2575 -1.48046875 15.875 C1 15 1 15 4 15 C0.09897612 17.78644563 -3.38486888 19.68139111 -8 21 C-8.33 24.63 -8.66 28.26 -9 32 C-3.2141641 28.75428718 0.14729638 24.3345127 4 19 C4 24.02876148 0.282331 27.39147461 -3 31 C-3.94875 31.556875 -4.8975 32.11375 -5.875 32.6875 C-8.36361759 33.88471749 -8.36361759 33.88471749 -8.8125 37.1875 C-8.874375 38.115625 -8.93625 39.04375 -9 40 C-1.81242015 37.56353225 2.70545284 34.49064149 8 29 C6.67779003 34.61939237 2.62017898 37.05907838 -2 40 C-5.07680607 41.5042163 -6.5784842 42 -10 42 C-9.773125 42.763125 -9.54625 43.52625 -9.3125 44.3125 C-9.209375 45.199375 -9.10625 46.08625 -9 47 C-9.474375 47.3815625 -9.94875 47.763125 -10.4375 48.15625 C-12.91923671 51.08469932 -12.57506265 54.50919255 -12.6875 58.1875 C-12.72166016 58.93708984 -12.75582031 59.68667969 -12.79101562 60.45898438 C-12.87334294 62.30546838 -12.93835281 64.15270994 -13 66 C-13.99 66 -14.98 66 -16 66 C-16.02703381 64.06257659 -16.04641125 62.12504521 -16.0625 60.1875 C-16.07410156 59.10855469 -16.08570313 58.02960937 -16.09765625 56.91796875 C-16 54 -16 54 -15 51 C-14.79526678 48.39249498 -14.627837 45.79868909 -14.5 43.1875 C-14.31290079 39.42819187 -14.12060112 35.71799737 -13.49609375 32 C-12.76512649 27.57966253 -12.64860967 23.1290601 -12.48242188 18.65820312 C-12.29793745 14.95807203 -12.10161282 13.15241923 -10 10 C-9.236875 9.773125 -8.47375 9.54625 -7.6875 9.3125 C-3.63142382 7.33162559 -2.114407 3.86891494 0 0 Z " fill="#3B3B3B" transform="translate(806,931)"/>
<path d="M0 0 C0.66 0.33 1.32 0.66 2 1 C0.38405168 3.04119788 -1.2856382 5.04072937 -3 7 C-3.66 7 -4.32 7 -5 7 C-5.33 8.32 -5.66 9.64 -6 11 C-4.205625 10.7215625 -4.205625 10.7215625 -2.375 10.4375 C1.28283707 9.9688803 4.37862166 10.18518987 8 11 C5.25089267 12.48690444 2.77766345 13.38861835 -0.28125 14.0078125 C-13.69101403 16.87605167 -26.95599324 20.60455517 -39.11108398 27.1340332 C-41.47793615 28.21910812 -42.59824741 27.85776878 -45 27 C-45 25.33333333 -45 23.66666667 -45 22 C-43.68 22 -42.36 22 -41 22 C-40.67 20.35 -40.34 18.7 -40 17 C-39.34 17.99 -38.68 18.98 -38 20 C-37.4652002 19.81824219 -36.93040039 19.63648438 -36.37939453 19.44921875 C-33.96230875 18.62968956 -31.54368634 17.81479267 -29.125 17 C-28.28324219 16.71382812 -27.44148437 16.42765625 -26.57421875 16.1328125 C-25.76855469 15.86210938 -24.96289062 15.59140625 -24.1328125 15.3125 C-23.38918457 15.06113281 -22.64555664 14.80976562 -21.87939453 14.55078125 C-20 14 -20 14 -18 14 C-17.92910156 13.25363281 -17.85820313 12.50726562 -17.78515625 11.73828125 C-16.77999167 8.23270728 -15.36570304 7.29085712 -12.4375 5.1875 C-11.61121094 4.58292969 -10.78492188 3.97835937 -9.93359375 3.35546875 C-8.97646484 2.68451172 -8.97646484 2.68451172 -8 2 C-8 2.99 -8 3.98 -8 5 C-9.49609375 6.28125 -9.49609375 6.28125 -11.4375 7.5 C-14.59496295 9.46619621 -14.59496295 9.46619621 -16 13 C-13.36 12.67 -10.72 12.34 -8 12 C-7.773125 11.113125 -7.54625 10.22625 -7.3125 9.3125 C-5.82230195 5.55152397 -3.98428732 3.67820657 -1 1 C-0.67 0.67 -0.34 0.34 0 0 Z " fill="#414141" transform="translate(866,981)"/>
<path d="M0 0 C1.32 2.31 2.64 4.62 4 7 C2.62328125 6.91298828 2.62328125 6.91298828 1.21875 6.82421875 C-5.78989019 6.56654815 -10.49722306 6.45022667 -16.13671875 10.7734375 C-18.31726397 12.20884882 -20.06261918 12.56656245 -22.625 13 C-25.9445286 13.57978068 -27.68241434 14.29934663 -30.125 16.625 C-33 19 -33 19 -36.5 19.5 C-40.22171803 18.968326 -42.77093367 17.89018517 -46 16 C-44.75 14.4375 -44.75 14.4375 -43 13 C-40.8125 13.3125 -40.8125 13.3125 -39 14 C-39.33 13.34 -39.66 12.68 -40 12 C-37 11 -37 11 -34 12 C-34.33 11.34 -34.66 10.68 -35 10 C-32.08291076 8.01637931 -30.87619096 8.0123809 -27.25 8.375 C-26.1775 8.58125 -25.105 8.7875 -24 9 C-24.66 8.34 -25.32 7.68 -26 7 C-23 5 -23 5 -20.3125 5.375 C-19.549375 5.58125 -18.78625 5.7875 -18 6 C-18.33 5.34 -18.66 4.68 -19 4 C-17.5437328 3.63743142 -16.08488815 3.28520207 -14.625 2.9375 C-13.81289063 2.74027344 -13.00078125 2.54304687 -12.1640625 2.33984375 C-10 2 -10 2 -8 3 C-8 2.34 -8 1.68 -8 1 C-5.10765685 0.17361624 -3.11257569 0 0 0 Z " fill="#F5F5F5" transform="translate(871,995)"/>
<path d="M0 0 C8.25 0 16.5 0 25 0 C20.3880597 9.2238806 20.3880597 9.2238806 16 11 C11.28089829 12.17977543 5.83773017 12.77403683 1 12 C-0.76953125 10.609375 -0.76953125 10.609375 -2 9 C-2 8.34 -2 7.68 -2 7 C-2.99 6.67 -3.98 6.34 -5 6 C-4.01 5.34 -3.02 4.68 -2 4 C-1.34 2.68 -0.68 1.36 0 0 Z " fill="#F7F7F7" transform="translate(822,982)"/>
<path d="M0 0 C0.66 0.33 1.32 0.66 2 1 C1.03513672 1.98613281 1.03513672 1.98613281 0.05078125 2.9921875 C-7.62454855 11.07263457 -14.05917253 19.76074743 -20.47509766 28.85839844 C-22.70246576 31.98655615 -24.99834401 35.06073828 -27.3125 38.125 C-28.03050781 39.07632813 -28.74851562 40.02765625 -29.48828125 41.0078125 C-29.98714844 41.66523437 -30.48601563 42.32265625 -31 43 C-32.32 42.67 -33.64 42.34 -35 42 C-33.61244336 37.95295979 -31.66274971 35.31524333 -29 32 C-27.6799308 30.00498783 -26.36798616 28.00458528 -25.0625 26 C-18.30924501 15.96845186 -9.3469557 7.6079872 0 0 Z " fill="#F3F3F3" transform="translate(839,956)"/>
<path d="M0 0 C1.13088241 3.39264724 0.72337492 4.5826771 0 8 C-0.06533435 9.93651019 -0.08584303 11.87502861 -0.0625 13.8125 C-0.05347656 14.78832031 -0.04445313 15.76414062 -0.03515625 16.76953125 C-0.02355469 17.50558594 -0.01195312 18.24164062 0 19 C1.32 18.34 2.64 17.68 4 17 C3.90460937 16.10796875 3.80921875 15.2159375 3.7109375 14.296875 C3.60007812 13.12640625 3.48921875 11.9559375 3.375 10.75 C3.20097656 9.00976562 3.20097656 9.00976562 3.0234375 7.234375 C3.00044405 4.06127909 3.30294846 2.61682756 5 0 C6.32229189 2.64458379 6.09677194 4.67761301 6.0625 7.625 C6.05347656 8.62789062 6.04445313 9.63078125 6.03515625 10.6640625 C6.02355469 11.43492187 6.01195312 12.20578125 6 13 C6.99 13.33 7.98 13.66 9 14 C8.55197021 14.4125 8.10394043 14.825 7.64233398 15.25 C5.57009576 17.16242482 3.50380068 19.08116219 1.4375 21 C0.73302734 21.64839844 0.02855469 22.29679688 -0.69726562 22.96484375 C-7.03013755 28.85995955 -12.6740763 35.18281767 -18 42 C-19.32 41.34 -20.64 40.68 -22 40 C-22 38.02 -22 36.04 -22 34 C-20.63875 33.4121875 -20.63875 33.4121875 -19.25 32.8125 C-12.65279405 29.13328899 -10.98643153 23.90736418 -9 17 C-8.67 17 -8.34 17 -8 17 C-8 19.64 -8 22.28 -8 25 C-5.38446324 24.09776198 -5.38446324 24.09776198 -3 22 C-2.50872014 19.04026489 -2.30000244 16.58442316 -2.3125 13.625 C-2.21040576 4.42081152 -2.21040576 4.42081152 0 0 Z " fill="#3F3F3F" transform="translate(830,943)"/>
<path d="M0 0 C0.38844064 6.98499504 -0.62526826 11.73032063 -3.5 18.0625 C-3.83386719 18.83271484 -4.16773438 19.60292969 -4.51171875 20.39648438 C-5.3266012 22.270714 -6.16124268 24.13633258 -7 26 C-5.68 26 -4.36 26 -3 26 C-3 26.66 -3 27.32 -3 28 C-3.9075 28.04125 -4.815 28.0825 -5.75 28.125 C-10.08631544 29.29246954 -10.79779918 31.20310203 -13 35 C-14.89346707 37.32380049 -16.13553258 38.06055711 -18.9375 39.3125 C-22.61925259 41.34122081 -23.77640924 43.48529203 -26 47 C-31.13164309 51.99295003 -36.44710431 53.10525312 -43.4375 53.125 C-44.95857296 53.09326375 -46.47959282 53.05506505 -48 53 C-46 50 -46 50 -43.13671875 49.375 C-41.99847656 49.25125 -40.86023438 49.1275 -39.6875 49 C-35.03097301 48.49027755 -31.78513895 47.84728812 -28 45 C-27.08911 43.24328358 -26.17922131 41.48601121 -25.28125 39.72265625 C-23.66878179 37.55467308 -22.23431227 37.07919629 -19.75 36.0625 C-12.46100768 32.49017208 -10.0371507 24.06488515 -7 17 C-6.71229736 16.37432129 -6.42459473 15.74864258 -6.12817383 15.10400391 C-4.59564857 11.72487017 -3.63623908 8.83052226 -3.4375 5.125 C-3.30859375 2.8203125 -3.30859375 2.8203125 -3 1 C-1 0 -1 0 0 0 Z " fill="#171717" transform="translate(871,944)"/>
<path d="M0 0 C1.16337891 0.00322266 2.32675781 0.00644531 3.52539062 0.00976562 C4.74033203 0.01814453 5.95527344 0.02652344 7.20703125 0.03515625 C8.43357422 0.03966797 9.66011719 0.04417969 10.92382812 0.04882812 C13.95577793 0.0606256 16.98763031 0.07708704 20.01953125 0.09765625 C14.46301157 3.8020027 8.66759386 3.22278661 2.20703125 3.16015625 C1.32337891 3.15564453 0.43972656 3.15113281 -0.47070312 3.14648438 C-2.64065434 3.13475491 -4.81057047 3.1168212 -6.98046875 3.09765625 C-7.64046875 4.41765625 -8.30046875 5.73765625 -8.98046875 7.09765625 C-5.66502576 8.20280391 -2.77636764 8.41873256 0.70703125 8.66015625 C1.88652344 8.74394531 3.06601562 8.82773437 4.28125 8.9140625 C5.18488281 8.97464844 6.08851563 9.03523437 7.01953125 9.09765625 C7.01953125 9.42765625 7.01953125 9.75765625 7.01953125 10.09765625 C0.74953125 10.09765625 -5.52046875 10.09765625 -11.98046875 10.09765625 C-12.31046875 11.41765625 -12.64046875 12.73765625 -12.98046875 14.09765625 C-13.97046875 14.42765625 -14.96046875 14.75765625 -15.98046875 15.09765625 C-15.32046875 15.75765625 -14.66046875 16.41765625 -13.98046875 17.09765625 C-14.64046875 17.42765625 -15.30046875 17.75765625 -15.98046875 18.09765625 C-15.90828125 18.71253906 -15.83609375 19.32742188 -15.76171875 19.9609375 C-15.66890625 20.76917969 -15.57609375 21.57742188 -15.48046875 22.41015625 C-15.38765625 23.21066406 -15.29484375 24.01117187 -15.19921875 24.8359375 C-14.98046875 27.09765625 -14.98046875 27.09765625 -14.98046875 30.09765625 C-19.25978728 30.09765625 -20.70868058 29.73326338 -23.98046875 27.09765625 C-24.58943978 23.65279075 -24.09796551 22.28460665 -22.22265625 19.30078125 C-21.44148437 18.32625 -20.6603125 17.35171875 -19.85546875 16.34765625 C-16.38972607 11.95785191 -13.20497874 7.50585229 -10.26953125 2.7421875 C-7.64703061 -0.60348756 -3.90495273 -0.01904855 0 0 Z " fill="#3E3E3E" transform="translate(833.98046875,972.90234375)"/>
<path d="M0 0 C1.9453125 -0.29296875 1.9453125 -0.29296875 4.125 -0.1875 C5.40375 -0.125625 6.6825 -0.06375 8 0 C10.97746781 5.12124464 10.97746781 5.12124464 11.0625 8.4375 C9.50023759 12.20530935 7.32545783 15.58085143 4 18 C0.79296875 18.19921875 0.79296875 18.19921875 -2 18 C-2.05397335 15.5622037 -2.09365616 13.12560315 -2.125 10.6875 C-2.14175781 9.99720703 -2.15851562 9.30691406 -2.17578125 8.59570312 C-2.21217794 4.82864604 -2.14378864 3.21568296 0 0 Z " fill="#F5F5F5" transform="translate(797,979)"/>
<path d="M0 0 C0.99 0.33 1.98 0.66 3 1 C3.33 1.99 3.66 2.98 4 4 C1.23161577 8.97476565 -2.95593388 13.05703553 -7 17 C-8.51168687 18.83365654 -10.00550293 20.67737215 -11.47265625 22.546875 C-13 24 -13 24 -17 25 C-17 21.37 -17 17.74 -17 14 C-16.19175781 13.6596875 -15.38351562 13.319375 -14.55078125 12.96875 C-7.53012827 9.78447314 -3.13742972 7.18690295 0 0 Z " fill="#E5E5E5" transform="translate(814,938)"/>
<path d="M0 0 C3.60509091 1.29024306 5.7712407 3.57822102 8.3125 6.375 C9.03050781 7.14585937 9.74851562 7.91671875 10.48828125 8.7109375 C10.98714844 9.46632813 11.48601563 10.22171875 12 11 C11.67 12.32 11.34 13.64 11 15 C5.06 13.515 5.06 13.515 -1 12 C-1 11.34 -1 10.68 -1 10 C-1.33 10.66 -1.66 11.32 -2 12 C-3.98 12 -5.96 12 -8 12 C-7.3936169 8.91357813 -6.41489705 6.84649121 -4.5625 4.3125 C-4.13066406 3.71050781 -3.69882812 3.10851562 -3.25390625 2.48828125 C-2 1 -2 1 0 0 Z " fill="#E7E7E7" transform="translate(879,978)"/>
<path d="M0 0 C5.26053037 -0.31563182 8.44573816 0.33409063 13 3 C12.12269491 5.70502403 11.28331029 7.68400006 9.375 9.8125 C5.75925088 11.62037456 3.02440798 11.32454903 -1 11 C-2.9319528 9.0680472 -4.51620532 7.29313723 -6 5 C-6 3.68 -6 2.36 -6 1 C-3.6875 0.6875 -3.6875 0.6875 -1 1 C0.8125 3.5 0.8125 3.5 2 6 C2 5.67 2 5.34 2 5 C1.34 4.34 0.68 3.68 0 3 C0 2.01 0 1.02 0 0 Z " fill="#F2F2F2" transform="translate(879,993)"/>
<path d="M0 0 C-2.74910733 1.48690444 -5.22233655 2.38861835 -8.28125 3.0078125 C-21.69101403 5.87605167 -34.95599324 9.60455517 -47.11108398 16.1340332 C-49.47793615 17.21910812 -50.59824741 16.85776878 -53 16 C-53 15.01 -53 14.02 -53 13 C-48.86347894 11.61935235 -44.72317281 10.25084922 -40.5793457 8.89233398 C-39.17727128 8.43094234 -37.77618349 7.96653898 -36.3762207 7.4987793 C-24.54516876 3.54942707 -12.60232685 -0.30184614 0 0 Z " fill="#E5E5E5" transform="translate(874,992)"/>
<path d="M0 0 C1.65 0.33 3.3 0.66 5 1 C5.33 1.99 5.66 2.98 6 4 C5.0925 4.495 4.185 4.99 3.25 5.5 C0.34503844 7.36699386 -0.57989245 8.9941865 -1.8125 12.1875 C-2.72265625 14.29296875 -2.72265625 14.29296875 -4 16 C-7.01790377 16.99197185 -9.84012217 17.10803001 -13 17 C-12.17190272 12.69923669 -10.45673075 11.68856836 -7 9 C-3.05118344 4.822341 -3.05118344 4.822341 0 0 Z " fill="#F8F8F8" transform="translate(873,975)"/>
<path d="M0 0 C0.33 0 0.66 0 1 0 C1.29429833 14.78031621 0.43214727 29.29001922 -1 44 C-1.99 44 -2.98 44 -4 44 C-4.02703381 42.06257659 -4.04641125 40.12504521 -4.0625 38.1875 C-4.07410156 37.10855469 -4.08570313 36.02960937 -4.09765625 34.91796875 C-4 32 -4 32 -3 29 C-2.81842847 26.53869704 -2.67559426 24.08935579 -2.5625 21.625 C-2.17608449 14.32733862 -1.27008169 7.20123989 0 0 Z " fill="#F1F1F1" transform="translate(794,953)"/>
<path d="M0 0 C1.32 2.31 2.64 4.62 4 7 C2.58847656 6.94779297 2.58847656 6.94779297 1.1484375 6.89453125 C-0.09679687 6.86746094 -1.34203125 6.84039063 -2.625 6.8125 C-3.85476563 6.77769531 -5.08453125 6.74289062 -6.3515625 6.70703125 C-10.26407664 7.0212053 -12.64070218 8.03093467 -16 10 C-16.99 8.02 -17.98 6.04 -19 4 C-17.5437328 3.63743142 -16.08488815 3.28520207 -14.625 2.9375 C-13.40683594 2.64166016 -13.40683594 2.64166016 -12.1640625 2.33984375 C-10 2 -10 2 -8 3 C-8 2.34 -8 1.68 -8 1 C-5.10765685 0.17361624 -3.11257569 0 0 0 Z " fill="#E6E6E6" transform="translate(871,995)"/>
<path d="M0 0 C1.46218333 0.06618937 2.92118874 0.20531225 4.375 0.375 C8.28931732 0.81055265 12.20204291 1.21187301 16.125 1.5625 C17.52105469 1.68818359 17.52105469 1.68818359 18.9453125 1.81640625 C19.96238281 1.90728516 19.96238281 1.90728516 21 2 C20.67 3.32 20.34 4.64 20 6 C16.43693339 6.73088546 12.94221677 7.13138181 9.3125 7.25 C8.19294922 7.28867187 8.19294922 7.28867187 7.05078125 7.328125 C4.45193821 6.91231011 3.57936481 6.06570889 2 4 C2 3.34 2 2.68 2 2 C1.01 1.67 0.02 1.34 -1 1 C-0.67 0.67 -0.34 0.34 0 0 Z " fill="#CDCDCD" transform="translate(818,987)"/>
<path d="M0 0 C3.91689852 2.7704892 7.02064235 5.18692704 8.5625 9.8125 C8.63052967 11.54045352 8.64745645 13.27085365 8.625 15 C8.61597656 15.90105469 8.60695313 16.80210937 8.59765625 17.73046875 C8.58605469 18.41753906 8.57445312 19.10460937 8.5625 19.8125 C8.2325 19.8125 7.9025 19.8125 7.5625 19.8125 C6.9025 15.8525 6.2425 11.8925 5.5625 7.8125 C4.5725 7.4825 3.5825 7.1525 2.5625 6.8125 C1.881875 6.1009375 1.881875 6.1009375 1.1875 5.375 C-2.00675571 2.30360028 -5.32201903 1.68736204 -9.625 1.625 C-13.24070727 1.54629588 -13.24070727 1.54629588 -15.4375 2.8125 C-18.1098621 2.94665472 -20.76000488 2.85568541 -23.4375 2.8125 C-23.4375 2.1525 -23.4375 1.4925 -23.4375 0.8125 C-15.78098839 -1.54334973 -7.70820755 -2.66283534 0 0 Z " fill="#0D0D0D" transform="translate(861.4375,932.1875)"/>
<path d="M0 0 C0.33 0.99 0.66 1.98 1 3 C-1.35759179 7.26180054 -3.94329951 10.29553301 -8 13 C-8.99 13 -9.98 13 -11 13 C-11 14.65 -11 16.3 -11 18 C-11.99 18 -12.98 18 -14 18 C-14 17.01 -14 16.02 -14 15 C-16.31 15 -18.62 15 -21 15 C-21 14.01 -21 13.02 -21 12 C-20.27554688 11.91363281 -19.55109375 11.82726562 -18.8046875 11.73828125 C-12.33578307 10.79813381 -8.4894733 9.8348174 -4 5 C-2.76487921 2.86690808 -2.76487921 2.86690808 -2 1 C-1.34 0.67 -0.68 0.34 0 0 Z " fill="#212121" transform="translate(819,964)"/>
<path d="M0 0 C0 1.32 0 2.64 0 4 C-0.66 4 -1.32 4 -2 4 C-2.268125 4.969375 -2.53625 5.93875 -2.8125 6.9375 C-3.204375 7.948125 -3.59625 8.95875 -4 10 C-4.99 10.33 -5.98 10.66 -7 11 C-11.03361345 5.62184874 -11.03361345 5.62184874 -10.875 2.6875 C-8.78627158 -1.34076195 -3.90513453 -0.06298604 0 0 Z " fill="#EAEAEA" transform="translate(794,911)"/>
<path d="M0 0 C0.33 0 0.66 0 1 0 C1.36580223 4.19627412 1.3762094 6.40162579 -0.8984375 10.01953125 C-1.71570313 10.94121094 -2.53296875 11.86289062 -3.375 12.8125 C-4.59316406 14.21435547 -4.59316406 14.21435547 -5.8359375 15.64453125 C-7.19484941 17.12363572 -8.57971981 18.57971981 -10 20 C-12 18 -12 18 -12.125 14.875 C-12.08375 13.92625 -12.0425 12.9775 -12 12 C-11.0925 11.608125 -10.185 11.21625 -9.25 10.8125 C-4.59244951 8.21501992 -2.14323323 4.82227477 0 0 Z " fill="#EBEBEB" transform="translate(820,965)"/>
<path d="M0 0 C0.81210937 0.29003906 1.62421875 0.58007812 2.4609375 0.87890625 C3.27820313 1.16636719 4.09546875 1.45382812 4.9375 1.75 C5.56398438 1.97816406 6.19046875 2.20632813 6.8359375 2.44140625 C5.0859375 6.31640625 5.0859375 6.31640625 2.8359375 7.44140625 C-2.42311421 7.84594869 -5.61704542 7.10307478 -10.1640625 4.44140625 C-8.9140625 2.87890625 -8.9140625 2.87890625 -7.1640625 1.44140625 C-4.9765625 1.75390625 -4.9765625 1.75390625 -3.1640625 2.44140625 C-3.4940625 1.78140625 -3.8240625 1.12140625 -4.1640625 0.44140625 C-2.1640625 -0.55859375 -2.1640625 -0.55859375 0 0 Z " fill="#EFEFEF" transform="translate(835.1640625,1006.55859375)"/>
<path d="M0 0 C0.83917969 0.48919922 0.83917969 0.48919922 1.6953125 0.98828125 C7.18579925 3.39851187 14.28982548 2.202142 20 1 C19.67 1.99 19.34 2.98 19 4 C16.49609375 5.16796875 16.49609375 5.16796875 13.4375 6.1875 C12.42558594 6.53167969 11.41367187 6.87585938 10.37109375 7.23046875 C9.58863281 7.48441406 8.80617188 7.73835937 8 8 C7.67 7.34 7.34 6.68 7 6 C6.67 6.99 6.34 7.98 6 9 C5.01 9 4.02 9 3 9 C3 7.68 3 6.36 3 5 C2.34 5 1.68 5 1 5 C0.67 3.35 0.34 1.7 0 0 Z " fill="#F8F8F8" transform="translate(819,994)"/>
<path d="M0 0 C3.33717549 1.3809002 5.22301036 2.8201238 7 6 C6.67 7.32 6.34 8.64 6 10 C0.06 8.515 0.06 8.515 -6 7 C-4.11656068 3.23312136 -3.30867531 2.20578354 0 0 Z " fill="#F3F3F3" transform="translate(884,983)"/>
<path d="M0 0 C0 0.66 0 1.32 0 2 C1.32 2.33 2.64 2.66 4 3 C1 4 1 4 -1.5 3.4375 C-4.2399734 2.66177482 -4.2399734 2.66177482 -7 5 C-5.35 5.66 -3.7 6.32 -2 7 C-4.78823655 8.0326802 -5.8677274 8.04509293 -8.75 7.0625 C-9.4925 6.711875 -10.235 6.36125 -11 6 C-11.33 6.33 -11.66 6.66 -12 7 C-11.01 7.99 -10.02 8.98 -9 10 C-10.0725 9.62875 -11.145 9.2575 -12.25 8.875 C-15.81629347 7.68508268 -15.81629347 7.68508268 -18.4375 8.875 C-18.953125 9.24625 -19.46875 9.6175 -20 10 C-20.66 9.34 -21.32 8.68 -22 8 C-18.89954577 6.65791246 -15.79407011 5.32786246 -12.6875 4 C-11.80642578 3.6184375 -10.92535156 3.236875 -10.01757812 2.84375 C-9.17001953 2.4828125 -8.32246094 2.121875 -7.44921875 1.75 C-6.66893311 1.41484375 -5.88864746 1.0796875 -5.0847168 0.734375 C-3 0 -3 0 0 0 Z " fill="#353535" transform="translate(844,1001)"/>
<path d="M0 0 C0.38844064 6.98499504 -0.62526826 11.73032063 -3.5 18.0625 C-3.83386719 18.83271484 -4.16773438 19.60292969 -4.51171875 20.39648438 C-5.3266012 22.270714 -6.16124268 24.13633258 -7 26 C-7.99 26 -8.98 26 -10 26 C-8.63370196 21.72668487 -7.26705018 17.575185 -5.375 13.5 C-3.92465735 9.8082187 -3.52805621 6.74403522 -3.30859375 2.8203125 C-3.20675781 2.21960938 -3.10492187 1.61890625 -3 1 C-1 0 -1 0 0 0 Z " fill="#1C1C1C" transform="translate(871,944)"/>
<path d="M0 0 C1 3 1 3 0.1796875 4.75390625 C-0.25085938 5.35074219 -0.68140625 5.94757812 -1.125 6.5625 C-1.54007813 7.16191406 -1.95515625 7.76132812 -2.3828125 8.37890625 C-4 10 -4 10 -9 12 C-9.33 18.6 -9.66 25.2 -10 32 C-10.33 32 -10.66 32 -11 32 C-13.03907638 14.55861456 -13.03907638 14.55861456 -10 10 C-9.236875 9.773125 -8.47375 9.54625 -7.6875 9.3125 C-3.63142382 7.33162559 -2.114407 3.86891494 0 0 Z " fill="#626262" transform="translate(806,931)"/>
<path d="M0 0 C0.66 0.33 1.32 0.66 2 1 C0.42398147 2.79858604 -1.16017785 4.58868298 -2.75 6.375 C-3.1934375 6.88289062 -3.636875 7.39078125 -4.09375 7.9140625 C-6.56913 10.68066368 -8.66613496 12.44061151 -12 14 C-13.4610504 15.32774288 -14.87708074 16.70631676 -16.25 18.125 C-16.95640625 18.84945312 -17.6628125 19.57390625 -18.390625 20.3203125 C-18.92171875 20.87460937 -19.4528125 21.42890625 -20 22 C-20 19 -20 19 -17.40234375 16.07421875 C-16.25566147 14.93691766 -15.10019991 13.80842057 -13.9375 12.6875 C-13.34493408 12.10589111 -12.75236816 11.52428223 -12.1418457 10.92504883 C-8.23004882 7.11183716 -4.23842101 3.44987757 0 0 Z " fill="#E7E7E7" transform="translate(839,956)"/>
<path d="M0 0 C-0.33 0.99 -0.66 1.98 -1 3 C-2.64722936 3.40340311 -4.29493822 3.80497501 -5.9453125 4.1953125 C-9.97291465 5.77266239 -12.93710846 9.02461965 -16 12 C-16.33 11.34 -16.66 10.68 -17 10 C-12.04533403 3.7853846 -8.51830149 -0.5943001 0 0 Z " fill="#232323" transform="translate(839,932)"/>
<path d="M0 0 C2.32472205 2.85306797 3.7508258 5.54074837 5 9 C3.02 9.99 3.02 9.99 1 11 C-0.98 9.68 -2.96 8.36 -5 7 C-3.35 4.69 -1.7 2.38 0 0 Z " fill="#ECECEC" transform="translate(815,993)"/>
<path d="M0 0 C0 0.99 0 1.98 0 3 C-11.33712984 9.88838269 -11.33712984 9.88838269 -18 9 C-17.67 8.01 -17.34 7.02 -17 6 C-16.01 5.938125 -15.02 5.87625 -14 5.8125 C-9.88359508 5.25917469 -7.06755577 3.39459172 -3.69921875 1.05859375 C-2 0 -2 0 0 0 Z " fill="#242424" transform="translate(863,1001)"/>
<path d="M0 0 C0.33 0 0.66 0 1 0 C1 2.64 1 5.28 1 8 C1.78375 7.484375 2.5675 6.96875 3.375 6.4375 C4.24125 5.963125 5.1075 5.48875 6 5 C6.66 5.33 7.32 5.66 8 6 C7.34773437 6.61746094 6.69546875 7.23492188 6.0234375 7.87109375 C0.5336961 13.19079891 -4.09119259 18.42176313 -8 25 C-8.66 24.34 -9.32 23.68 -10 23 C-9.36191406 22.34515625 -8.72382812 21.6903125 -8.06640625 21.015625 C-1.84591963 14.14494711 0.40568274 9.29824845 0 0 Z " fill="#323232" transform="translate(821,960)"/>
<path d="M0 0 C0.33 1.32 0.66 2.64 1 4 C0.01 4.66 -0.98 5.32 -2 6 C-1.34 6.66 -0.68 7.32 0 8 C-0.99 8.495 -0.99 8.495 -2 9 C-2.65555119 11.52733235 -2.65555119 11.52733235 -3 14 C-3.66 13.34 -4.32 12.68 -5 12 C-6.32 13.32 -7.64 14.64 -9 16 C-9 11.2170201 -7.3338445 9.30719821 -4.5 5.75 C-3.85611328 4.91855469 -3.85611328 4.91855469 -3.19921875 4.0703125 C-2.14136807 2.70686051 -1.07180218 1.35251228 0 0 Z " fill="#272727" transform="translate(820,982)"/>
<path d="M0 0 C0.66 0.33 1.32 0.66 2 1 C2 1.66 2 2.32 2 3 C-4.48343811 5.63096039 -10.02330843 6.39325819 -17 6 C-15 3 -15 3 -12.03125 2.3046875 C-10.8659375 2.16289063 -9.700625 2.02109375 -8.5 1.875 C-4.10090734 1.43566777 -4.10090734 1.43566777 0 0 Z " fill="#383838" transform="translate(840,991)"/>
<path d="M0 0 C0.66 0.33 1.32 0.66 2 1 C0.38405168 3.04119788 -1.2856382 5.04072937 -3 7 C-3.66 7 -4.32 7 -5 7 C-5.33 8.32 -5.66 9.64 -6 11 C-3.36 10.67 -0.72 10.34 2 10 C1.67 10.66 1.34 11.32 1 12 C-1.50390625 12.4140625 -1.50390625 12.4140625 -4.5625 12.625 C-5.57441406 12.69976563 -6.58632813 12.77453125 -7.62890625 12.8515625 C-8.41136719 12.90054688 -9.19382812 12.94953125 -10 13 C-9.34 12.67 -8.68 12.34 -8 12 C-7.731875 11.0925 -7.46375 10.185 -7.1875 9.25 C-5.80404369 5.46369852 -3.97072994 3.66603969 -1 1 C-0.67 0.67 -0.34 0.34 0 0 Z " fill="#323232" transform="translate(866,981)"/>
<path d="M0 0 C0.99 0 1.98 0 3 0 C3.81917642 1.72601379 4.63006016 3.4559647 5.4375 5.1875 C6.11619141 6.63189453 6.11619141 6.63189453 6.80859375 8.10546875 C7.90381422 10.76631586 8.54954796 13.16784755 9 16 C8.01 16 7.02 16 6 16 C3.84705349 10.71169451 1.72066106 5.44876003 0 0 Z " fill="#1F1F1F" transform="translate(809,922)"/>
<path d="M0 0 C1.32 2.31 2.64 4.62 4 7 C0.7 6.34 -2.6 5.68 -6 5 C-6 4.34 -6 3.68 -6 3 C-6.66 3 -7.32 3 -8 3 C-8 2.34 -8 1.68 -8 1 C-5.10765685 0.17361624 -3.11257569 0 0 0 Z " fill="#F4F4F4" transform="translate(871,995)"/>
<path d="M0 0 C1.98 0.66 3.96 1.32 6 2 C4.63855967 7.19822672 2.53269829 10.09543873 -1 14 C-1.66 13.67 -2.32 13.34 -3 13 C-1.79618552 10.50638429 -0.54571278 8.31856917 1 6 C0.68493373 2.85778033 0.68493373 2.85778033 0 0 Z " fill="#1B1B1B" transform="translate(806,982)"/>
<path d="M0 0 C2.48674167 0.44406101 3.91700788 0.93574804 5.9375 2.5 C8.29858218 4.21715068 10.13690678 4.60234816 13 5 C13 5.33 13 5.66 13 6 C9.66666667 6 6.33333333 6 3 6 C2.67 7.32 2.34 8.64 2 10 C-0.4294516 6.3558226 -0.16179575 4.28758728 0 0 Z " fill="#0C0C0C" transform="translate(817,990)"/>
<path d="M0 0 C0 0.66 0 1.32 0 2 C-0.9075 2.04125 -1.815 2.0825 -2.75 2.125 C-7.07415076 3.28919443 -7.71893167 5.27425505 -10 9 C-12.1171875 10.19140625 -12.1171875 10.19140625 -14 11 C-13.04855402 9.18387512 -12.08863067 7.37218919 -11.125 5.5625 C-10.59132813 4.55316406 -10.05765625 3.54382813 -9.5078125 2.50390625 C-6.84166857 -1.92355038 -4.68707549 -0.91703651 0 0 Z " fill="#0D0D0D" transform="translate(868,970)"/>
<path d="M0 0 C0.33 0.99 0.66 1.98 1 3 C0.505 3.78375 0.01 4.5675 -0.5 5.375 C-2.28964178 7.90868437 -2.28964178 7.90868437 -1.6875 10.8125 C-1.460625 11.534375 -1.23375 12.25625 -1 13 C-1.99 13.495 -1.99 13.495 -3 14 C-3.33 12.68 -3.66 11.36 -4 10 C-4.9075 10.04125 -5.815 10.0825 -6.75 10.125 C-9.8782046 10.00468444 -11.38614006 9.6085292 -14 8 C-13.67 7.34 -13.34 6.68 -13 6 C-9.535 7.485 -9.535 7.485 -6 9 C-5.67 8.01 -5.34 7.02 -5 6 C-4.34 6 -3.68 6 -3 6 C-2.01 4.02 -1.02 2.04 0 0 Z " fill="#3A3A3A" transform="translate(792,915)"/>
<path d="M0 0 C0.66 0.99 1.32 1.98 2 3 C6.95 1.515 6.95 1.515 12 0 C12.33 0.66 12.66 1.32 13 2 C11.1291122 2.67812114 9.25305707 3.3419946 7.375 4 C6.33085938 4.37125 5.28671875 4.7425 4.2109375 5.125 C0.98225494 6.00483564 -1.67244294 6.15988262 -5 6 C-3.68 5.67 -2.36 5.34 -1 5 C-0.67 3.35 -0.34 1.7 0 0 Z " fill="#484848" transform="translate(826,998)"/>
<path d="M0 0 C0.99 0.33 1.98 0.66 3 1 C3 4.63 3 8.26 3 12 C2.01 12 1.02 12 0 12 C0 8.04 0 4.08 0 0 Z " fill="#DFDFDF" transform="translate(790,985)"/>
<path d="M0 0 C1.98 0.99 1.98 0.99 4 2 C4 2.66 4 3.32 4 4 C4.99 4.33 5.98 4.66 7 5 C6.34 7.64 5.68 10.28 5 13 C4.34 13 3.68 13 3 13 C2.86722656 12.39671875 2.73445312 11.7934375 2.59765625 11.171875 C2.42105469 10.37265625 2.24445312 9.5734375 2.0625 8.75 C1.88847656 7.96109375 1.71445312 7.1721875 1.53515625 6.359375 C1.052444 4.23121297 0.53836822 2.11467158 0 0 Z " fill="#0D0D0D" transform="translate(816,937)"/>
<path d="M0 0 C-0.53625 0.2475 -1.0725 0.495 -1.625 0.75 C-4.19107587 2.03214677 -4.19107587 2.03214677 -7.0625 4.1875 C-8.5165625 5.0846875 -8.5165625 5.0846875 -10 6 C-10.99 5.67 -11.98 5.34 -13 5 C-13 4.34 -13 3.68 -13 3 C-4.738041 -1.77676538 -4.738041 -1.77676538 0 0 Z " fill="#262626" transform="translate(867,940)"/>
<path d="M0 0 C0.33 0 0.66 0 1 0 C1.125 2.375 1.125 2.375 1 5 C0.34 5.66 -0.32 6.32 -1 7 C-1.40047444 9.32275177 -1.7397104 11.65739357 -2 14 C-2.66 14 -3.32 14 -4 14 C-4.33 11.36 -4.66 8.72 -5 6 C-4.360625 5.7525 -3.72125 5.505 -3.0625 5.25 C-0.81258459 4.18437567 -0.81258459 4.18437567 -0.25 1.875 C-0.1675 1.25625 -0.085 0.6375 0 0 Z " fill="#121212" transform="translate(777,938)"/>
<path d="M0 0 C0.66 0.33 1.32 0.66 2 1 C2.33333333 2.33333333 2.66666667 3.66666667 3 5 C3.9601817 6.68991979 4.95355934 8.36209288 6 10 C5.01 10 4.02 10 3 10 C1.3125 8 1.3125 8 0 6 C-0.99 6.33 -1.98 6.66 -3 7 C-3 6.34 -3 5.68 -3 5 C-3.66 4.67 -4.32 4.34 -5 4 C-4.01 3.67 -3.02 3.34 -2 3 C-1.34 2.01 -0.68 1.02 0 0 Z " fill="#282828" transform="translate(781,911)"/>
<path d="M0 0 C3.465 1.485 3.465 1.485 7 3 C6.67 4.98 6.34 6.96 6 9 C5.01 9 4.02 9 3 9 C3 7.68 3 6.36 3 5 C2.34 5 1.68 5 1 5 C0.67 3.35 0.34 1.7 0 0 Z " fill="#E6E6E6" transform="translate(819,994)"/>
<path d="M0 0 C1.50433594 0.01353516 1.50433594 0.01353516 3.0390625 0.02734375 C3.80992187 0.03894531 4.58078125 0.05054688 5.375 0.0625 C5.375 0.7225 5.375 1.3825 5.375 2.0625 C4.69953125 2.09988281 4.0240625 2.13726563 3.328125 2.17578125 C2.43609375 2.24152344 1.5440625 2.30726563 0.625 2.375 C-0.25671875 2.43300781 -1.1384375 2.49101563 -2.046875 2.55078125 C-4.94803774 3.1266181 -6.41725607 4.13846148 -8.625 6.0625 C-8.25 3.625 -8.25 3.625 -7.625 1.0625 C-4.98041621 -0.25979189 -2.94738699 -0.03427194 0 0 Z " fill="#0B0B0B" transform="translate(790.625,908.9375)"/>
<path d="M0 0 C2.97 0 5.94 0 9 0 C9.33 1.98 9.66 3.96 10 6 C9.01 6 8.02 6 7 6 C7 5.01 7 4.02 7 3 C4.69 3 2.38 3 0 3 C0 2.01 0 1.02 0 0 Z " fill="#2D2D2D" transform="translate(798,976)"/>
<path d="M0 0 C0.05447047 1.41623216 0.09300508 2.83308191 0.125 4.25 C0.14820313 5.03890625 0.17140625 5.8278125 0.1953125 6.640625 C-0.0171622 9.20731941 -0.71345895 10.7916067 -2 13 C-2.66 13 -3.32 13 -4 13 C-3.88652381 11.02013918 -3.7589065 9.04108402 -3.625 7.0625 C-3.55539062 5.96035156 -3.48578125 4.85820313 -3.4140625 3.72265625 C-3.27742187 2.82417969 -3.14078125 1.92570313 -3 1 C-1 0 -1 0 0 0 Z " fill="#3A3A3A" transform="translate(871,944)"/>
<path d="M0 0 C2.30428431 2.26883379 4.5196395 4.60035567 6.6875 7 C7.31011719 7.680625 7.93273437 8.36125 8.57421875 9.0625 C10 11 10 11 10 14 C0.74038462 4.99759615 0.74038462 4.99759615 0 0 Z " fill="#5E5E5E" transform="translate(779,950)"/>
<path d="M0 0 C2.375 0.0625 2.375 0.0625 5 1 C7.3125 3.5625 7.3125 3.5625 9 6 C5.08406554 5.21681311 1.63593365 3.60820142 -2 2 C-1.34 1.34 -0.68 0.68 0 0 Z " fill="#191919" transform="translate(858,932)"/>
<path d="M0 0 C0.33 0.66 0.66 1.32 1 2 C-1.64 2.33 -4.28 2.66 -7 3 C-6.67 3.99 -6.34 4.98 -6 6 C-7.98 5.34 -9.96 4.68 -12 4 C-9.57869669 1.57869669 -8.19888623 1.47159496 -4.875 0.875 C-3.50988281 0.62363281 -3.50988281 0.62363281 -2.1171875 0.3671875 C-1.06917969 0.18542969 -1.06917969 0.18542969 0 0 Z " fill="#383838" transform="translate(870,993)"/>
<path d="M0 0 C0.99 0 1.98 0 3 0 C3 3.3 3 6.6 3 10 C2.01 10.33 1.02 10.66 0 11 C0 7.37 0 3.74 0 0 Z " fill="#0B0B0B" transform="translate(788,975)"/>
<path d="M0 0 C0.66 0.33 1.32 0.66 2 1 C2 1.66 2 2.32 2 3 C0.46875 4.2890625 0.46875 4.2890625 -1.5 5.625 C-2.1496875 6.07101562 -2.799375 6.51703125 -3.46875 6.9765625 C-3.9740625 7.31429687 -4.479375 7.65203125 -5 8 C-5.33 7.01 -5.66 6.02 -6 5 C-4.02 3.35 -2.04 1.7 0 0 Z " fill="#111111" transform="translate(844,1008)"/>
<path d="M0 0 C-0.33 0.66 -0.66 1.32 -1 2 C-3.28515625 2.6328125 -3.28515625 2.6328125 -6.0625 3.125 C-6.98160156 3.29257812 -7.90070312 3.46015625 -8.84765625 3.6328125 C-9.91306641 3.81457031 -9.91306641 3.81457031 -11 4 C-7.64191281 0.32209498 -4.88401581 -0.13200043 0 0 Z " fill="#F2F2F2" transform="translate(857,995)"/>
<path d="M0 0 C-0.1875 1.875 -0.1875 1.875 -1 4 C-3.5625 5.25 -3.5625 5.25 -6 6 C-6 5.01 -6 4.02 -6 3 C-2.66666667 0 -2.66666667 0 0 0 Z " fill="#222222" transform="translate(892,1000)"/>
<path d="M0 0 C1.98 0.66 3.96 1.32 6 2 C5.34 3.65 4.68 5.3 4 7 C2 6 2 6 0.875 2.9375 C0.58625 1.968125 0.2975 0.99875 0 0 Z " fill="#0B0B0B" transform="translate(806,982)"/>
<path d="M0 0 C0.33 0.66 0.66 1.32 1 2 C1.66 2 2.32 2 3 2 C3 3.98 3 5.96 3 8 C2.01 7.67 1.02 7.34 0 7 C0 4.69 0 2.38 0 0 Z " fill="#373737" transform="translate(772,950)"/>
<path d="M0 0 C0 0.66 0 1.32 0 2 C-2.31 3.32 -4.62 4.64 -7 6 C-4.84615385 0 -4.84615385 0 0 0 Z " fill="#121212" transform="translate(778,916)"/>
<path d="M0 0 C0.66 0.33 1.32 0.66 2 1 C0.35 2.98 -1.3 4.96 -3 7 C-3.33 5.68 -3.66 4.36 -4 3 C-2.68 2.01 -1.36 1.02 0 0 Z " fill="#858585" transform="translate(866,981)"/>
<path d="M0 0 C0 0.66 0 1.32 0 2 C-2.64 2 -5.28 2 -8 2 C-8 1.34 -8 0.68 -8 0 C-5.13822943 -1.43088528 -3.06624227 -0.59991697 0 0 Z " fill="#030303" transform="translate(868,970)"/>
<path d="M0 0 C0.99 0 1.98 0 3 0 C3.33 2.31 3.66 4.62 4 7 C3.01 6.67 2.02 6.34 1 6 C0.67 4.02 0.34 2.04 0 0 Z " fill="#333333" transform="translate(775,934)"/>
<path d="M0 0 C1.98 0 3.96 0 6 0 C5.67 0.99 5.34 1.98 5 3 C3.02 3 1.04 3 -1 3 C-0.67 2.01 -0.34 1.02 0 0 Z " fill="#383838" transform="translate(833,932)"/>
</svg>
